<svg width="87" height="87" viewBox="0 0 87 87" fill="none" xmlns="http://www.w3.org/2000/svg">
<path d="M55.9842 15.8198V14.9635C55.9842 12.5985 55.0444 10.3298 53.3724 8.65789C51.6997 6.98521 49.4317 6.04602 47.0667 6.04602H14.9634C12.5984 6.04602 10.3296 6.98523 8.65777 8.65789C6.98509 10.3299 6.0459 12.5985 6.0459 14.9635V72.0352C6.0459 74.4008 6.98511 76.669 8.65777 78.3408C10.3298 80.0135 12.5984 80.9527 14.9634 80.9527H47.0667C49.4317 80.9527 51.6998 80.0135 53.3724 78.3408C55.0444 76.6688 55.9842 74.4007 55.9842 72.0352V58.6591C55.3776 58.4806 54.7716 58.2668 54.1649 58.0352L48.8502 58.9624V63.1175C48.8469 64.0627 48.4706 64.9688 47.8022 65.6371C47.1338 66.3055 46.2284 66.6819 45.2832 66.6845H16.7466C15.8014 66.6819 14.8953 66.3055 14.2276 65.6371C13.5592 64.9687 13.1822 64.0627 13.1796 63.1175V16.7475C13.1822 15.8024 13.5592 14.8962 14.2276 14.2286C14.8954 13.5602 15.8014 13.1832 16.7466 13.1805H45.2832C46.2284 13.1832 47.1339 13.5602 47.8022 14.2286C48.4706 14.8964 48.8469 15.8024 48.8502 16.7475V19.4405C50.9902 17.8136 53.4069 16.587 55.9842 15.8203V15.8198ZM27.4476 72.035H34.5816C35.5666 72.035 36.3651 72.8335 36.3651 73.8185C36.3651 74.8036 35.5666 75.602 34.5816 75.602H27.4476C26.4625 75.602 25.6641 74.8035 25.6641 73.8185C25.6641 72.8335 26.4626 72.035 27.4476 72.035Z" fill="#044F86"/>
<path d="M45.2842 22.7764V16.748H16.7476V63.118H45.2842V58.8734C44.1286 58.5528 43.0846 57.9162 42.2702 57.0367C40.7163 55.3813 40.1116 53.0495 40.6645 50.8478L41.8241 46.2286C40.1275 42.3915 39.5521 38.1521 40.1647 34.0016C40.7767 29.8511 42.5516 25.9588 45.2843 22.7755L45.2842 22.7764Z" fill="#044F86"/>
<path d="M65.7581 55.6528C69.5296 54.9088 72.9837 53.0316 75.6588 50.2711C78.3337 47.5112 80.1019 43.9999 80.7272 40.2071C81.6658 34.3336 79.7582 28.363 75.5878 24.1216C71.4167 19.8809 65.4795 17.8731 59.5905 18.7133C53.7017 19.553 48.5622 23.1407 45.7439 28.379C42.9256 33.6174 42.763 39.8832 45.3071 45.2604C45.4864 45.6102 45.5401 46.0111 45.4585 46.3961L44.1283 51.7148H44.1277C43.8734 52.7397 44.1542 53.8235 44.8737 54.5962C45.5932 55.3688 46.6545 55.7252 47.6948 55.544L54.1153 54.4116H54.1159C54.4305 54.3672 54.7518 54.4116 55.0432 54.5398C57.3239 55.4942 59.7724 55.9854 62.245 55.9848C63.4238 55.9841 64.5998 55.8725 65.7581 55.6528ZM55.9849 34.5825C54.9999 34.5825 54.2014 33.784 54.2014 32.799C54.1988 30.6896 55.1327 28.6884 56.7496 27.3343C58.6964 25.6988 61.3667 25.2236 63.7582 26.0858C66.1496 26.9487 67.902 29.019 68.3566 31.5199C68.652 33.1262 68.3858 34.7849 67.6032 36.2186C66.8207 37.6516 65.5694 38.772 64.0581 39.392C63.4608 39.6848 63.0917 40.3021 63.1183 40.9671V41.7165C63.1183 42.7015 62.3198 43.5 61.3348 43.5C60.3498 43.5 59.5513 42.7015 59.5513 41.7165V40.9671C59.5334 39.935 59.8228 38.9214 60.383 38.0545C60.9425 37.187 61.7476 36.5066 62.6961 36.0984C63.4959 35.7678 64.1484 35.1578 64.5321 34.3825C64.9164 33.6066 65.0047 32.7178 64.7817 31.8814C64.5587 31.045 64.0389 30.3183 63.3194 29.8371C62.6006 29.3552 61.7304 29.1514 60.8729 29.2642C60.0147 29.3764 59.2261 29.7966 58.6552 30.4471C58.0837 31.0975 57.7685 31.9332 57.7678 32.7988C57.7678 33.2714 57.5799 33.7254 57.2454 34.0599C56.9116 34.3945 56.4575 34.5823 55.9849 34.5823L55.9849 34.5825ZM58.6598 48.0303C58.6598 47.3207 58.9419 46.6397 59.4431 46.1386C59.9449 45.6368 60.6259 45.3547 61.3348 45.3547C62.0444 45.3547 62.7254 45.6368 63.2265 46.1386C63.7283 46.6397 64.0105 47.3207 64.0105 48.0303C64.0105 48.7399 63.7283 49.4202 63.2265 49.922C62.7254 50.4232 62.0444 50.7053 61.3348 50.7053C60.6259 50.7053 59.9449 50.4232 59.4431 49.922C58.9419 49.4202 58.6598 48.7399 58.6598 48.0303Z" fill="#044F86"/>
</svg>
