<svg width="77" height="77" viewBox="0 0 77 77" fill="none" xmlns="http://www.w3.org/2000/svg">
<path d="M46.519 6.417V12.8334C46.519 13.7154 45.7974 14.4378 44.9146 14.4378H19.248C18.3659 14.4378 17.6436 13.7162 17.6436 12.8334V6.417C17.6436 5.53492 18.3652 4.81255 19.248 4.81255H27.2687C27.2687 2.16566 29.4344 0 32.0813 0C34.7282 0 36.8938 2.16566 36.8938 4.81255H44.9146C45.7959 4.81255 46.5183 5.53492 46.5183 6.417H46.519Z" fill="#044F86"/>
<path d="M48.5903 41.6453L49.312 42.2229C49.312 42.2229 49.2963 42.2229 49.2963 42.2072L50.1627 42.8811L56.9164 48.1907C56.9008 48.1907 56.8843 48.175 56.8687 48.1586L57.9433 49.0086C57.9276 48.9765 57.9112 48.9765 57.8955 48.9444L58.6657 49.5541L73.0229 31.3147L62.9171 23.4224L48.5903 41.6453Z" fill="#044F86"/>
<path d="M74.5606 19.0259C71.7697 16.8281 67.727 17.3095 65.5451 20.1005L64.9033 20.9184L75.0091 28.8108L75.6188 28.0249C77.8173 25.2497 77.3359 21.207 74.5606 19.0259Z" fill="#044F86"/>
<path d="M44.242 42.736C44.2577 42.6718 44.2898 42.6077 44.3062 42.5435C44.3219 42.4472 44.3539 42.3674 44.386 42.2711C44.4502 42.0629 44.5301 41.8539 44.6263 41.6614C44.6584 41.5972 44.6905 41.5495 44.7226 41.4853C44.8666 41.2286 45.0114 40.9883 45.1875 40.7637H45.2032C45.251 40.6838 45.3151 40.6032 45.3793 40.539L63.0246 18.1126C63.3611 17.6797 63.7626 17.2782 64.1634 16.9096L64.1656 9.62533C64.1656 8.74325 63.444 8.02087 62.5611 8.02087H49.7277V12.8334C49.7277 15.4803 47.562 17.646 44.9151 17.646H19.2505C16.6036 17.646 14.4379 15.4803 14.4379 12.8334V8.02087H1.60445C0.722368 8.02087 0 8.7425 0 9.62533V75.3955C0 76.2776 0.721623 77 1.60445 77H62.5623C63.4444 77 64.1667 76.2783 64.1667 75.3955V47.7727L60.2847 52.7136C60.2691 52.7293 60.237 52.7614 60.2049 52.7778C60.0288 53.0024 59.8362 53.195 59.6273 53.3711C59.5795 53.4188 59.531 53.4673 59.4833 53.4994C59.2109 53.7076 58.9221 53.9002 58.6169 54.0606H58.6012H58.5855L48.6721 58.9053C48.0303 59.2262 47.2923 59.3866 46.5707 59.3866C45.4961 59.3866 44.4371 59.0179 43.5872 58.3597C42.1431 57.221 41.47 55.3277 41.8708 53.5472L44.242 42.736ZM17.6451 68.9795C17.6451 69.8616 16.9234 70.584 16.0406 70.584H6.41533C5.53325 70.584 4.81088 69.8623 4.81088 68.9795V59.3542C4.81088 58.4722 5.5325 57.7498 6.41533 57.7498H16.0406C16.9227 57.7498 17.6451 58.4714 17.6451 59.3542V68.9795ZM17.6451 49.7301C17.6451 50.6122 16.9234 51.3345 16.0406 51.3345H6.41533C5.53325 51.3345 4.81088 50.6129 4.81088 49.7301V40.1048C4.81088 39.2227 5.5325 38.5003 6.41533 38.5003H16.0406C16.9227 38.5003 17.6451 39.222 17.6451 40.1048V49.7301ZM17.6451 30.4806C17.6451 31.3627 16.9234 32.0851 16.0406 32.0851H6.41533C5.53325 32.0851 4.81088 31.3635 4.81088 30.4806V20.8554C4.81088 19.9733 5.5325 19.2509 6.41533 19.2509H16.0406C16.9227 19.2509 17.6451 19.9725 17.6451 20.8554V30.4806ZM24.0614 24.0635H49.728C50.6101 24.0635 51.3324 24.7852 51.3324 25.668C51.3324 26.5501 50.6108 27.2724 49.728 27.2724H24.0614C23.1793 27.2724 22.457 26.5508 22.457 25.668C22.4577 24.7859 23.1793 24.0635 24.0614 24.0635ZM49.728 62.5624C50.6101 62.5624 51.3324 63.284 51.3324 64.1669C51.3324 65.0489 50.6108 65.7713 49.728 65.7713H24.0614C23.1793 65.7713 22.457 65.0497 22.457 64.1669C22.457 63.2848 23.1786 62.5624 24.0614 62.5624H49.728ZM40.1833 46.5215H24.061C23.179 46.5215 22.4566 45.7999 22.4566 44.9171C22.4566 44.035 23.1782 43.3126 24.061 43.3126H40.1825C41.0646 43.3126 41.787 44.0342 41.787 44.9171C41.787 45.7992 41.0654 46.5215 40.1833 46.5215Z" fill="#044F86"/>
<path d="M45.5737 55.8416C45.8625 56.0662 46.2155 56.1781 46.5685 56.1781C46.8088 56.1781 47.0498 56.1304 47.2744 56.0177L56.322 51.5901L53.5146 49.4088L49.9691 46.6178L47.1617 44.4044L44.9961 54.2379C44.8677 54.8305 45.0924 55.4565 45.5737 55.8416Z" fill="#044F86"/>
</svg>
