<svg width="63" height="82" viewBox="0 0 63 82" fill="none" xmlns="http://www.w3.org/2000/svg">
<path fill-rule="evenodd" clip-rule="evenodd" d="M0.718327 67.4825C0.718327 75.2056 6.98631 81.4735 14.7094 81.4735H59.4825C61.0272 81.4735 62.2804 80.2197 62.2804 78.6757C62.2804 77.1309 61.0265 75.8778 59.4825 75.8778H14.7094C10.0759 75.8778 6.31501 72.1169 6.31501 67.4834C6.31501 62.8498 10.0759 59.089 14.7094 59.089H59.4825H59.4991C60.7474 59.0806 61.802 58.2551 62.1547 57.1222L62.1741 57.0576L62.1963 56.9736L62.2158 56.8896L62.2324 56.8028L62.2602 56.6292L62.2685 56.5424L62.2796 56.3633V8.71983C62.2796 4.0863 58.5188 0.325439 53.8852 0.325439H9.11217C4.47863 0.325439 0.717773 4.0863 0.717773 8.71983V67.4824L0.718327 67.4825ZM59.4809 64.6846H14.7078C13.163 64.6846 11.9099 65.9384 11.9099 67.4825C11.9099 69.0272 13.1638 70.2804 14.7078 70.2804H59.4809C61.0256 70.2804 62.2788 69.0265 62.2788 67.4825C62.2788 65.9377 61.0249 64.6846 59.4809 64.6846ZM56.683 53.4914V8.71833C56.683 7.17357 55.4291 5.92043 53.8851 5.92043H9.11201C7.56725 5.92043 6.31412 7.1743 6.31412 8.71833V56.2907C8.6531 54.5307 11.5608 53.4893 14.7085 53.4893H56.6823L56.683 53.4914ZM31.498 17.7881C30.4462 16.6099 29.293 15.7788 28.1259 15.2248C24.376 13.4454 20.3242 14.4243 17.7888 16.8342C14.1453 20.2959 13.5913 27.2018 17.2209 34.1243C19.4877 38.6996 25.1822 43.3589 30.0004 46.4117C30.9154 46.9879 32.0797 46.9879 32.9948 46.4117C37.813 43.3589 43.5075 38.6996 45.7743 34.1243C49.404 27.2018 48.8493 20.295 45.2064 16.8342C42.6708 14.425 38.6192 13.4455 34.8693 15.2248C33.7023 15.7789 32.5497 16.6099 31.4972 17.7881H31.498Z" fill="#044F86"/>
</svg>
