<?xml version="1.0" encoding="UTF-8"?>
<svg version="1.1" xmlns="http://www.w3.org/2000/svg" width="1920" height="1080">
<path d="M0 0 C633.6 0 1267.2 0 1920 0 C1920 356.4 1920 712.8 1920 1080 C1286.4 1080 652.8 1080 0 1080 C0 723.6 0 367.2 0 0 Z " fill="#F5F5F5" transform="translate(0,0)"/>
<path d="M0 0 C131.67 0 263.34 0 399 0 C399 356.4 399 712.8 399 1080 C-88.41 1080 -575.82 1080 -1078 1080 C-1076.92151387 1076.76454161 -1076.31920277 1076.2149361 -1073.75 1074.1875 C-1071.34191195 1072.2052324 -1069.52188528 1070.42626234 -1067.5 1068 C-1065.07918825 1065.0950259 -1062.58218698 1062.89560302 -1059.6875 1060.5 C-1057.75444683 1058.85667758 -1057.75444683 1058.85667758 -1055.5 1056 C-1053.07918825 1053.0950259 -1050.58218698 1050.89560302 -1047.6875 1048.5 C-1045.75444683 1046.85667758 -1045.75444683 1046.85667758 -1043.5 1044 C-1041.07918825 1041.0950259 -1038.58218698 1038.89560302 -1035.6875 1036.5 C-1033.75444683 1034.85667758 -1033.75444683 1034.85667758 -1031.5 1032 C-1029.07918825 1029.0950259 -1026.58218698 1026.89560302 -1023.6875 1024.5 C-1021.75444683 1022.85667758 -1021.75444683 1022.85667758 -1019.5 1020 C-1017.07918825 1017.0950259 -1014.58218698 1014.89560302 -1011.6875 1012.5 C-1009.75444683 1010.85667758 -1009.75444683 1010.85667758 -1007.5 1008 C-1005.55318179 1005.66381815 -1003.86955291 1003.96569245 -1001.5625 1002.0625 C-998.47867206 999.51266824 -996.00850176 996.73637448 -993.46875 993.65625 C-991.23813424 991.14087478 -988.58340477 989.1436763 -986 987 C-985.195625 986.030625 -984.39125 985.06125 -983.5625 984.0625 C-981.57639734 981.68886511 -979.8466273 979.94116254 -977.5 978 C-975.17704148 976.07755157 -973.46009567 974.3521148 -971.5 972 C-969.55318179 969.66381815 -967.86955291 967.96569245 -965.5625 966.0625 C-962.47867206 963.51266824 -960.00850176 960.73637448 -957.46875 957.65625 C-955.23813424 955.14087478 -952.58340477 953.1436763 -950 951 C-949.195625 950.030625 -948.39125 949.06125 -947.5625 948.0625 C-945.11598976 945.13862191 -942.61129936 942.86318103 -939.69921875 940.4375 C-936.51104588 937.74037904 -933.67028906 934.87137577 -931.125 931.5625 C-929.33993347 929.40991977 -927.69449777 927.83072277 -925.5625 926.0625 C-923.22345042 924.12074122 -921.47368458 922.3684215 -919.5 920 C-917.07918825 917.0950259 -914.58218698 914.89560302 -911.6875 912.5 C-909.75444683 910.85667758 -909.75444683 910.85667758 -907.5 908 C-905.07918825 905.0950259 -902.58218698 902.89560302 -899.6875 900.5 C-897.75444683 898.85667758 -897.75444683 898.85667758 -895.5 896 C-893.07918825 893.0950259 -890.58218698 890.89560302 -887.6875 888.5 C-885.75444683 886.85667758 -885.75444683 886.85667758 -883.5 884 C-881.07918825 881.0950259 -878.58218698 878.89560302 -875.6875 876.5 C-873.75444683 874.85667758 -873.75444683 874.85667758 -871.5 872 C-869.07918825 869.0950259 -866.58218698 866.89560302 -863.6875 864.5 C-861.75444683 862.85667758 -861.75444683 862.85667758 -859.5 860 C-857.07918825 857.0950259 -854.58218698 854.89560302 -851.6875 852.5 C-849.75444683 850.85667758 -849.75444683 850.85667758 -847.5 848 C-845.55318179 845.66381815 -843.86955291 843.96569245 -841.5625 842.0625 C-838.47867206 839.51266824 -836.00850176 836.73637448 -833.46875 833.65625 C-831.23813424 831.14087478 -828.58340477 829.1436763 -826 827 C-825.195625 826.030625 -824.39125 825.06125 -823.5625 824.0625 C-821.57639734 821.68886511 -819.8466273 819.94116254 -817.5 818 C-815.17704148 816.07755157 -813.46009567 814.3521148 -811.5 812 C-809.55318179 809.66381815 -807.86955291 807.96569245 -805.5625 806.0625 C-802.47867206 803.51266824 -800.00850176 800.73637448 -797.46875 797.65625 C-795.23813424 795.14087478 -792.58340477 793.1436763 -790 791 C-789.195625 790.030625 -788.39125 789.06125 -787.5625 788.0625 C-785.11598976 785.13862191 -782.61129936 782.86318103 -779.69921875 780.4375 C-776.51104588 777.74037904 -773.67028906 774.87137577 -771.125 771.5625 C-769.33993347 769.40991977 -767.69449777 767.83072277 -765.5625 766.0625 C-763.22345042 764.12074122 -761.47368458 762.3684215 -759.5 760 C-757.07918825 757.0950259 -754.58218698 754.89560302 -751.6875 752.5 C-749.75444683 750.85667758 -749.75444683 750.85667758 -747.5 748 C-745.07918825 745.0950259 -742.58218698 742.89560302 -739.6875 740.5 C-737.75444683 738.85667758 -737.75444683 738.85667758 -735.5 736 C-733.07918825 733.0950259 -730.58218698 730.89560302 -727.6875 728.5 C-725.75444683 726.85667758 -725.75444683 726.85667758 -723.5 724 C-721.07918825 721.0950259 -718.58218698 718.89560302 -715.6875 716.5 C-713.75444683 714.85667758 -713.75444683 714.85667758 -711.5 712 C-709.07918825 709.0950259 -706.58218698 706.89560302 -703.6875 704.5 C-701.75444683 702.85667758 -701.75444683 702.85667758 -699.5 700 C-697.07918825 697.0950259 -694.58218698 694.89560302 -691.6875 692.5 C-689.75444683 690.85667758 -689.75444683 690.85667758 -687.5 688 C-685.55318179 685.66381815 -683.86955291 683.96569245 -681.5625 682.0625 C-678.47867206 679.51266824 -676.00850176 676.73637448 -673.46875 673.65625 C-671.23813424 671.14087478 -668.58340477 669.1436763 -666 667 C-665.195625 666.030625 -664.39125 665.06125 -663.5625 664.0625 C-661.57639734 661.68886511 -659.8466273 659.94116254 -657.5 658 C-655.17704148 656.07755157 -653.46009567 654.3521148 -651.5 652 C-649.55318179 649.66381815 -647.86955291 647.96569245 -645.5625 646.0625 C-642.47867206 643.51266824 -640.00850176 640.73637448 -637.46875 637.65625 C-635.23813424 635.14087478 -632.58340477 633.1436763 -630 631 C-629.195625 630.030625 -628.39125 629.06125 -627.5625 628.0625 C-625.11598976 625.13862191 -622.61129936 622.86318103 -619.69921875 620.4375 C-616.51104588 617.74037904 -613.67028906 614.87137577 -611.125 611.5625 C-609.33993347 609.40991977 -607.69449777 607.83072277 -605.5625 606.0625 C-603.22345042 604.12074122 -601.47368458 602.3684215 -599.5 600 C-597.07918825 597.0950259 -594.58218698 594.89560302 -591.6875 592.5 C-589.75444683 590.85667758 -589.75444683 590.85667758 -587.5 588 C-585.07918825 585.0950259 -582.58218698 582.89560302 -579.6875 580.5 C-577.75444683 578.85667758 -577.75444683 578.85667758 -575.5 576 C-573.07918825 573.0950259 -570.58218698 570.89560302 -567.6875 568.5 C-565.75444683 566.85667758 -565.75444683 566.85667758 -563.5 564 C-561.07918825 561.0950259 -558.58218698 558.89560302 -555.6875 556.5 C-553.75444683 554.85667758 -553.75444683 554.85667758 -551.5 552 C-549.07918825 549.0950259 -546.58218698 546.89560302 -543.6875 544.5 C-541.75444683 542.85667758 -541.75444683 542.85667758 -539.5 540 C-537.07918825 537.0950259 -534.58218698 534.89560302 -531.6875 532.5 C-529.75444683 530.85667758 -529.75444683 530.85667758 -527.5 528 C-525.55318179 525.66381815 -523.86955291 523.96569245 -521.5625 522.0625 C-518.47867206 519.51266824 -516.00850176 516.73637448 -513.46875 513.65625 C-511.23813424 511.14087478 -508.58340477 509.1436763 -506 507 C-505.195625 506.030625 -504.39125 505.06125 -503.5625 504.0625 C-501.57639734 501.68886511 -499.8466273 499.94116254 -497.5 498 C-495.17704148 496.07755157 -493.46009567 494.3521148 -491.5 492 C-489.55318179 489.66381815 -487.86955291 487.96569245 -485.5625 486.0625 C-482.47867206 483.51266824 -480.00850176 480.73637448 -477.46875 477.65625 C-475.23813424 475.14087478 -472.58340477 473.1436763 -470 471 C-469.195625 470.030625 -468.39125 469.06125 -467.5625 468.0625 C-465.11598976 465.13862191 -462.61129936 462.86318103 -459.69921875 460.4375 C-456.51104588 457.74037904 -453.67028906 454.87137577 -451.125 451.5625 C-449.33993347 449.40991977 -447.69449777 447.83072277 -445.5625 446.0625 C-443.22345042 444.12074122 -441.47368458 442.3684215 -439.5 440 C-437.07918825 437.0950259 -434.58218698 434.89560302 -431.6875 432.5 C-429.75444683 430.85667758 -429.75444683 430.85667758 -427.5 428 C-425.07918825 425.0950259 -422.58218698 422.89560302 -419.6875 420.5 C-417.75444683 418.85667758 -417.75444683 418.85667758 -415.5 416 C-413.07918825 413.0950259 -410.58218698 410.89560302 -407.6875 408.5 C-405.75444683 406.85667758 -405.75444683 406.85667758 -403.5 404 C-401.07918825 401.0950259 -398.58218698 398.89560302 -395.6875 396.5 C-393.75444683 394.85667758 -393.75444683 394.85667758 -391.5 392 C-389.07918825 389.0950259 -386.58218698 386.89560302 -383.6875 384.5 C-381.75444683 382.85667758 -381.75444683 382.85667758 -379.5 380 C-377.07918825 377.0950259 -374.58218698 374.89560302 -371.6875 372.5 C-369.75444683 370.85667758 -369.75444683 370.85667758 -367.5 368 C-365.55318179 365.66381815 -363.86955291 363.96569245 -361.5625 362.0625 C-358.47867206 359.51266824 -356.00850176 356.73637448 -353.46875 353.65625 C-351.23813424 351.14087478 -348.58340477 349.1436763 -346 347 C-345.195625 346.030625 -344.39125 345.06125 -343.5625 344.0625 C-341.57639734 341.68886511 -339.8466273 339.94116254 -337.5 338 C-335.17704148 336.07755157 -333.46009567 334.3521148 -331.5 332 C-329.55318179 329.66381815 -327.86955291 327.96569245 -325.5625 326.0625 C-322.47867206 323.51266824 -320.00850176 320.73637448 -317.46875 317.65625 C-315.23813424 315.14087478 -312.58340477 313.1436763 -310 311 C-309.195625 310.030625 -308.39125 309.06125 -307.5625 308.0625 C-305.11598976 305.13862191 -302.61129936 302.86318103 -299.69921875 300.4375 C-296.51104588 297.74037904 -293.67028906 294.87137577 -291.125 291.5625 C-289.33993347 289.40991977 -287.69449777 287.83072277 -285.5625 286.0625 C-283.24712519 284.1395616 -281.51010737 282.40961657 -279.5625 280.0625 C-276.88826474 276.86646274 -274.00667105 274.34709328 -270.84375 271.65625 C-268.60273296 269.643133 -266.87210899 267.35523389 -265 265 C-263.87078776 264.00171091 -262.72322899 263.02396221 -261.5625 262.0625 C-259.22345042 260.12074122 -257.47368458 258.3684215 -255.5 256 C-253.07918825 253.0950259 -250.58218698 250.89560302 -247.6875 248.5 C-245.75444683 246.85667758 -245.75444683 246.85667758 -243.5 244 C-241.07918825 241.0950259 -238.58218698 238.89560302 -235.6875 236.5 C-233.75444683 234.85667758 -233.75444683 234.85667758 -231.5 232 C-229.07918825 229.0950259 -226.58218698 226.89560302 -223.6875 224.5 C-221.75444683 222.85667758 -221.75444683 222.85667758 -219.5 220 C-217.07918825 217.0950259 -214.58218698 214.89560302 -211.6875 212.5 C-209.75444683 210.85667758 -209.75444683 210.85667758 -207.5 208 C-205.55318179 205.66381815 -203.86955291 203.96569245 -201.5625 202.0625 C-198.47867206 199.51266824 -196.00850176 196.73637448 -193.46875 193.65625 C-191.23813424 191.14087478 -188.58340477 189.1436763 -186 187 C-185.195625 186.030625 -184.39125 185.06125 -183.5625 184.0625 C-181.57639734 181.68886511 -179.8466273 179.94116254 -177.5 178 C-175.17704148 176.07755157 -173.46009567 174.3521148 -171.5 172 C-169.55318179 169.66381815 -167.86955291 167.96569245 -165.5625 166.0625 C-162.47867206 163.51266824 -160.00850176 160.73637448 -157.46875 157.65625 C-155.23813424 155.14087478 -152.58340477 153.1436763 -150 151 C-149.195625 150.030625 -148.39125 149.06125 -147.5625 148.0625 C-145.11598976 145.13862191 -142.61129936 142.86318103 -139.69921875 140.4375 C-136.51104588 137.74037904 -133.67028906 134.87137577 -131.125 131.5625 C-129.33993347 129.40991977 -127.69449777 127.83072277 -125.5625 126.0625 C-123.24712519 124.1395616 -121.51010737 122.40961657 -119.5625 120.0625 C-116.88826474 116.86646274 -114.00667105 114.34709328 -110.84375 111.65625 C-108.60273296 109.643133 -106.87210899 107.35523389 -105 105 C-103.87078776 104.00171091 -102.72322899 103.02396221 -101.5625 102.0625 C-99.22345042 100.12074122 -97.47368458 98.3684215 -95.5 96 C-93.07918825 93.0950259 -90.58218698 90.89560302 -87.6875 88.5 C-85.75444683 86.85667758 -85.75444683 86.85667758 -83.5 84 C-81.07918825 81.0950259 -78.58218698 78.89560302 -75.6875 76.5 C-73.75444683 74.85667758 -73.75444683 74.85667758 -71.5 72 C-69.07918825 69.0950259 -66.58218698 66.89560302 -63.6875 64.5 C-61.75444683 62.85667758 -61.75444683 62.85667758 -59.5 60 C-57.07918825 57.0950259 -54.58218698 54.89560302 -51.6875 52.5 C-49.75444683 50.85667758 -49.75444683 50.85667758 -47.5 48 C-45.55318179 45.66381815 -43.86955291 43.96569245 -41.5625 42.0625 C-38.47867206 39.51266824 -36.00850176 36.73637448 -33.46875 33.65625 C-31.23813424 31.14087478 -28.58340477 29.1436763 -26 27 C-25.195625 26.030625 -24.39125 25.06125 -23.5625 24.0625 C-21.57639734 21.68886511 -19.8466273 19.94116254 -17.5 18 C-15.17704148 16.07755157 -13.46009567 14.3521148 -11.5 12 C-9.0487677 9.05852124 -6.51861752 6.78327752 -3.55078125 4.39453125 C-1.7459798 2.88740659 -1.7459798 2.88740659 0 0 Z " fill="#F5F5F5" transform="translate(1521,0)"/>
<path d="M0 0 C4.55192642 0.02430199 9.10374403 0.0073946 13.65569546 -0.00404243 C21.61533485 -0.01848256 29.57460606 -0.00718373 37.53420242 0.02142503 C49.36956417 0.06384537 61.20469608 0.06575952 73.04012 0.05963111 C92.95354729 0.05045443 112.86681143 0.07374496 132.78019126 0.11575295 C152.48745327 0.15721926 172.19464727 0.18412407 191.90195259 0.19172265 C193.1288123 0.19220383 194.35567202 0.192685 195.6197093 0.19318076 C201.8507009 0.1955492 208.08169256 0.19765885 214.31268428 0.19966889 C258.40868239 0.21435879 302.50459182 0.261484 346.60054 0.32778718 C357.27841646 0.34382399 367.95629305 0.35975735 378.63417037 0.37521149 C379.29645618 0.37617014 379.95874198 0.37712878 380.64109705 0.37811648 C411.45656532 0.42256422 442.27204121 0.4486168 473.08753314 0.46995506 C475.08926934 0.4713415 477.09100553 0.47273585 479.09274172 0.47413182 C492.35888186 0.48336172 505.62502218 0.49229238 518.89116267 0.50100383 C545.91409667 0.51875574 572.93702909 0.5385045 599.95996078 0.55946137 C601.82353093 0.56090292 601.82353093 0.56090292 603.72474895 0.56237358 C686.6419603 0.62674213 769.55912251 0.73765431 852.47627243 0.85586335 C851.1041124 3.93112369 849.54100148 6.04129216 847.16522678 8.41760733 C846.47607122 9.11176992 845.78691566 9.80593252 845.0768766 10.52113034 C844.3158252 11.27749941 843.55477381 12.03386847 842.77066024 12.81315781 C841.55753357 14.03064481 841.55753357 14.03064481 840.31989928 15.27272751 C838.06460462 17.53408298 835.80485997 19.79088131 833.54320175 22.04586913 C831.08739715 24.49661484 828.63737844 26.95313309 826.18662723 29.40893032 C821.88749185 33.71530225 817.58463054 38.01792318 813.27933105 42.31813218 C806.8774332 48.71248102 800.48124206 55.11251532 794.08618002 61.51369982 C782.66656036 72.94386474 771.24120768 84.36828547 759.81342929 95.79029273 C749.81423073 105.78446618 739.81688567 115.78048903 729.82139572 125.77837159 C729.15914968 126.44077039 728.49690365 127.10316919 727.81458956 127.78564069 C725.12654526 130.47430763 722.43850803 133.16298166 719.75048245 135.85166732 C694.52137137 161.08690007 669.2864247 186.31629008 644.04887394 211.54308204 C621.6079871 233.97447507 599.17227948 256.41103596 576.74092086 278.8519571 C551.55812063 304.04545682 526.37210484 329.23573471 501.18086132 354.42079212 C498.49761754 357.10339442 495.81438166 359.78600462 493.13114913 362.46861817 C492.47043105 363.1291781 491.80971297 363.78973803 491.12897313 364.47031492 C481.13401982 374.46298946 471.14154389 384.45813682 461.15025314 394.45447327 C449.7958088 405.814623 438.43782399 417.17121931 427.07508858 428.52307634 C420.70914008 434.88313189 414.34598519 441.24595306 407.98674303 447.61271425 C403.74640461 451.8575149 399.50248264 456.09870941 395.25554262 460.33690511 C392.830852 462.75680771 390.40781651 465.17830954 387.98908754 467.60417216 C385.39123448 470.20802903 382.78741785 472.80576524 380.18188461 475.40193345 C379.42083321 476.16766718 378.65978181 476.93340091 377.87566825 477.72233869 C377.18651269 478.40648722 376.49735713 479.09063574 375.78731807 479.79551603 C374.89375237 480.68887845 374.89375237 480.68887845 373.98213484 481.6002886 C372.47627243 482.85586335 372.47627243 482.85586335 370.47627243 482.85586335 C367.55908891 480.18177846 365.0127034 477.32662102 362.47627243 474.29336335 C360.04432097 471.41358452 357.47072634 469.15928944 354.47627243 466.85586335 C351.61461161 464.14095437 349.00181031 461.3162578 346.47627243 458.29336335 C344.04432097 455.41358452 341.47072634 453.15928944 338.47627243 450.85586335 C334.06728268 446.58323411 329.95940408 442.05298683 325.8493193 437.49648835 C323.22992164 434.62682976 320.71661952 432.04717721 317.47627243 429.85586335 C317.47627243 430.51586335 317.47627243 431.17586335 317.47627243 431.85586335 C315.60127243 433.98086335 315.60127243 433.98086335 313.47627243 435.85586335 C312.81627243 435.85586335 312.15627243 435.85586335 311.47627243 435.85586335 C311.14627243 436.84586335 310.81627243 437.83586335 310.47627243 438.85586335 C308.03877243 441.54336335 308.03877243 441.54336335 305.47627243 443.85586335 C304.81627243 443.85586335 304.15627243 443.85586335 303.47627243 443.85586335 C303.14627243 444.84586335 302.81627243 445.83586335 302.47627243 446.85586335 C301.01107772 448.30105378 301.01107772 448.30105378 299.09370407 449.86953523 C293.63893257 454.50322253 288.64154721 459.56611091 283.59736618 464.63711335 C282.52566046 465.71074216 281.45372394 466.78414062 280.38157638 467.85732819 C278.08740751 470.15463933 275.79479691 472.45348996 273.50340255 474.75356843 C269.87401461 478.39656874 266.24073502 482.03567136 262.60688766 485.67422273 C254.8937058 493.39846773 247.18476615 501.12694018 239.47627243 508.85586335 C231.15205774 517.2021393 222.82710245 525.5476685 214.49724277 533.88831117 C210.89111858 537.49939295 207.28744092 541.11289273 203.68566879 544.72831513 C201.43835126 546.98313457 199.18892554 549.235842 196.93894561 551.48800446 C195.90291845 552.5258907 194.86774941 553.56463442 193.83354553 554.60433747 C188.73437968 559.72974273 183.62309023 564.75467191 178.0879515 569.41067292 C176.22267348 571.01321112 176.22267348 571.01321112 173.97627243 573.85586335 C172.02969109 576.19176096 170.35023611 577.88825644 168.05931076 579.81017854 C162.31143037 584.78601233 157.00674137 590.20178438 151.64765914 595.58682038 C150.47418718 596.76221488 149.30048485 597.93737942 148.1265715 599.11233308 C145.61304251 601.62900656 143.10107147 604.14722091 140.5903128 606.66665818 C136.61701398 610.65355039 132.63984013 614.63656204 128.66209396 618.61901643 C120.22217944 627.06999892 111.78650989 635.52521289 103.35127243 643.98086335 C94.23610053 653.11808052 85.12019224 662.25455579 75.99939533 671.3861586 C72.04817122 675.3423536 68.09939551 679.30097119 64.15249976 683.26148416 C61.69549173 685.72596776 59.23639906 688.18836322 56.77674469 690.65020539 C55.63990288 691.78891404 54.50392327 692.92848424 53.3688887 694.0689943 C51.81479411 695.63034745 50.25759488 697.18854007 48.69963058 698.74603059 C47.83063062 699.61725116 46.96163066 700.48847173 46.06629737 701.38609292 C43.29930523 704.02461398 40.42769295 706.42668188 37.47627243 708.85586335 C34.67773005 711.51447861 32.12181815 714.2626572 29.66377243 717.23086335 C26.80763916 720.62854916 23.62229041 723.44792595 20.21064743 726.27773835 C18.24859068 727.93511015 18.24859068 727.93511015 16.47627243 730.85586335 C51.45627243 730.85586335 86.43627243 730.85586335 122.47627243 730.85586335 C120.65748785 734.4934325 119.13131997 736.52443068 116.39810165 739.43697907 C115.54298492 740.35120637 114.68786819 741.26543366 113.80683883 742.20736482 C112.85616659 743.21316057 111.90522987 744.21870639 110.95405563 745.22402741 C109.95287746 746.28851589 108.9518383 747.35313512 107.95092758 748.41787507 C98.75638504 758.17718019 89.43876974 767.81895961 80.08833011 777.42874314 C73.81774501 783.87744811 67.58904477 790.3576905 61.45112594 796.93301179 C16.67734939 844.83251592 16.67734939 844.83251592 -2.02705494 846.49137284 C-9.10251862 846.68688636 -15.89943928 845.62160131 -22.7179567 843.80105378 C-27.44400362 842.62730621 -32.02483025 842.28889276 -36.87400834 842.03976228 C-54.54171739 840.81356719 -69.72606257 828.28299007 -81.01835648 815.65225007 C-93.44601198 800.82210262 -98.68725805 783.90160158 -98.65236203 764.94974591 C-98.65411506 763.74760802 -98.6558681 762.54547014 -98.65767426 761.30690383 C-98.66152647 757.96795535 -98.66090475 754.62906192 -98.65839649 751.29011575 C-98.65676246 747.65834041 -98.66090504 744.02657089 -98.66430567 740.3947974 C-98.6694595 734.02880984 -98.67087689 727.66282989 -98.66984955 721.29684045 C-98.66832557 711.83030371 -98.67248427 702.3637754 -98.67772418 692.8972403 C-98.68739999 675.00695652 -98.6902085 657.1166756 -98.69078124 639.22638951 C-98.69124059 625.41228085 -98.69329794 611.59817332 -98.69648186 597.78406503 C-98.69737939 593.80923736 -98.6982692 589.83440969 -98.69915674 585.85958202 C-98.69937779 584.87146027 -98.69959884 583.88333852 -98.69982658 582.86527369 C-98.70598158 555.06775015 -98.70992706 527.27022701 -98.7094833 499.47270276 C-98.70946773 498.42446913 -98.70945215 497.3762355 -98.7094361 496.29623722 C-98.70935299 490.98321919 -98.70925395 485.67020117 -98.70915139 480.35718314 C-98.70913144 479.30197727 -98.7091115 478.2467714 -98.70909095 477.15958959 C-98.70905051 475.02570614 -98.70900871 472.8918227 -98.70896556 470.75793925 C-98.70835271 437.55302741 -98.71586082 404.34812578 -98.72953812 371.14321687 C-98.74489403 333.84761718 -98.75350465 296.55202421 -98.7525749 259.25642117 C-98.75250027 255.28065043 -98.75245156 251.3048797 -98.75242058 247.32910897 C-98.75240893 246.35015501 -98.75239727 245.37120105 -98.75238527 244.36258183 C-98.75235448 228.59961691 -98.75874393 212.83666085 -98.76735285 197.07369857 C-98.77582391 181.23576265 -98.77682356 165.3978397 -98.77024353 149.55990277 C-98.7665443 140.1482522 -98.76839135 130.73664101 -98.77818587 121.3249946 C-98.7841755 115.03893679 -98.78290173 108.75290757 -98.77571537 102.46685108 C-98.77182529 98.88484504 -98.77108287 95.30291531 -98.77917272 91.72091458 C-98.78781522 87.86040705 -98.78095924 84.00001437 -98.77261654 80.13950421 C-98.77758472 79.03029436 -98.7825529 77.92108451 -98.78767163 76.77826225 C-98.68907315 55.25691271 -89.4966011 37.29205379 -74.66435257 21.9300821 C-72.69687979 20.10134137 -70.66952711 18.47246233 -68.52372757 16.85586335 C-67.57497757 16.13656648 -66.62622757 15.4172696 -65.64872757 14.67617585 C-45.54253887 0.20049793 -23.77779715 -0.16823062 0 0 Z " fill="#3C3C3A" transform="translate(428.5237275743857,89.14413664955646)"/>
<path d="M0 0 C5.65591174 -0.0497947 11.31169313 -0.08590496 16.96777344 -0.10986328 C18.88804348 -0.11986133 20.80829853 -0.13346421 22.72851562 -0.15087891 C25.50394411 -0.17540192 28.27916965 -0.18654531 31.0546875 -0.1953125 C31.8998996 -0.20563507 32.74511169 -0.21595764 33.61593628 -0.22659302 C42.23615771 -0.22818087 50.30257164 1.67887853 58.5625 4 C59.76003906 4.33 60.95757813 4.66 62.19140625 5 C65 6 65 6 66 8 C67.76815994 8.9018207 69.56574734 9.74624334 71.375 10.5625 C89.18864826 19.31083971 101.56487322 35.55245091 108.17578125 54.0390625 C110.53583152 62.51734736 111.28935964 70.47995534 111.25447559 79.2696743 C111.25928531 81.07717464 111.25928531 81.07717464 111.26419219 82.92119014 C111.27104423 86.25425362 111.26900152 89.58709271 111.26313647 92.92014345 C111.2589539 96.55072489 111.26637505 100.18128611 111.27228898 103.81186259 C111.28104285 110.17115856 111.28236598 116.53042233 111.27878571 122.88972282 C111.2734757 132.34636549 111.279577 141.80297702 111.28786864 151.2596163 C111.30310843 169.13192758 111.30481374 187.0042247 111.30234561 204.87654112 C111.30051295 218.67721349 111.302272 232.47788122 111.30657005 246.27855301 C111.30717245 248.26129194 111.30777365 250.24403088 111.30837366 252.22676981 C111.30928091 255.21456341 111.31018958 258.20235702 111.31110601 261.19015062 C111.31953549 288.96874409 111.32387124 316.74733583 111.31969929 344.5259304 C111.31954291 345.57311555 111.31938654 346.62030069 111.31922542 347.69921872 C111.31841964 353.00676834 111.31757387 358.31431796 111.31671212 363.62186758 C111.31654103 364.67596404 111.31636994 365.7300605 111.31619367 366.81609927 C111.31584702 368.94773785 111.31549849 371.07937643 111.31514808 373.211015 C111.30979031 406.38287468 111.31772293 439.55470778 111.33618164 472.7265625 C111.3568959 509.99547053 111.36762549 547.26436209 111.36360615 584.5332762 C111.36321081 588.50678928 111.36284926 592.48030237 111.36250877 596.45381546 C111.36241804 597.43219507 111.36232731 598.41057468 111.36223383 599.41860216 C111.36106771 614.19006924 111.3677172 628.9615197 111.37832069 643.73298264 C111.39036674 660.53116626 111.39193847 677.32931326 111.37953053 694.12749742 C111.37289793 703.52765089 111.37454226 712.9277168 111.38811904 722.32786328 C111.39635899 728.60870623 111.3936719 734.88948354 111.38214377 741.17032114 C111.37588289 744.74768061 111.37429798 748.32486911 111.38600711 751.90221874 C111.39852133 755.76111271 111.3877029 759.61974666 111.37473011 763.47864342 C111.38203946 764.5817417 111.3893488 765.68483998 111.39687964 766.82136548 C111.3254104 777.07426352 109.04136153 786.64221975 104.875 796 C104.5764209 796.67297119 104.2778418 797.34594238 103.97021484 798.03930664 C97.64632182 811.67530206 87.32139479 822.82098493 74.48046875 830.4921875 C72.03396712 831.90705385 72.03396712 831.90705385 70.11328125 833.5078125 C58.6063661 841.63284316 42.75644403 842.59886687 29.20986176 842.49219131 C27.68190579 842.49515869 26.15395243 842.49988234 24.62600654 842.50617731 C20.45804319 842.51833913 16.29047613 842.50584992 12.1225426 842.48906477 C7.57672995 842.47523346 3.03095433 842.48482901 -1.51486635 842.49137473 C-9.47146464 842.49964308 -17.42794291 842.4931403 -25.38452721 842.4768219 C-37.21554684 842.45262494 -49.04649122 842.45148395 -60.87753108 842.45498985 C-80.7817345 842.46023888 -100.6858847 842.44690481 -120.59007263 842.42292023 C-140.29308842 842.39923899 -159.99608203 842.38385379 -179.69911194 842.37950897 C-180.924929 842.37923401 -182.15074607 842.37895906 -183.41370911 842.37867576 C-189.6392055 842.3773224 -195.86470191 842.37611688 -202.09019834 842.37496826 C-246.16675538 842.36657024 -290.24328348 842.33963093 -334.31982422 842.30175781 C-344.9968871 842.29259406 -355.67395002 842.28348935 -366.35101318 842.2746582 C-367.34434289 842.27383651 -367.34434289 842.27383651 -368.35773986 842.27299821 C-399.16019737 842.2476076 -429.96265738 842.23271492 -460.76512262 842.22051902 C-462.76558927 842.21972677 -464.76605592 842.21893 -466.76652256 842.21813231 C-480.02405752 842.21285815 -493.28159254 842.20775491 -506.53912761 842.20277687 C-533.5454133 842.19263246 -560.55169847 842.18134745 -587.5579834 842.16937256 C-588.79964446 842.1688234 -590.04130551 842.16827424 -591.32059266 842.16770844 C-674.21374047 842.13091586 -757.10687224 842.06753624 -840 842 C-839.05001646 840.88426962 -838.09897001 839.76944419 -837.14748126 838.65499717 C-836.61798247 838.03408102 -836.08848368 837.41316487 -835.54293947 836.77343308 C-833.56211958 834.49670636 -831.47373566 832.35396775 -829.33695984 830.22343445 C-828.45508499 829.3416301 -827.57321014 828.45982574 -826.66461182 827.55130005 C-825.70573169 826.59755176 -824.74680688 825.64384841 -823.7878418 824.69018555 C-822.76373827 823.66800445 -821.73986459 822.64559303 -820.71620178 821.62297058 C-818.52417203 819.43408487 -816.33060294 817.24675811 -814.13580894 815.06064415 C-810.66677711 811.60519452 -807.20161648 808.14588006 -803.73701477 804.68598938 C-796.39014289 797.35018454 -789.03902952 790.01863676 -781.6875 782.6875 C-773.73272105 774.75474956 -765.77868378 766.82126359 -757.82949382 758.88291198 C-754.38314997 755.44155672 -750.93438136 752.00265549 -747.4837507 748.56559885 C-745.34397488 746.43326177 -743.20625441 744.29887342 -741.06909752 742.16391182 C-740.07544669 741.1721387 -739.08092902 740.1812332 -738.08549881 739.19124603 C-736.73075149 737.84367646 -735.37934005 736.49275567 -734.02812195 735.14164734 C-733.26990489 734.38565089 -732.51168783 733.62965445 -731.7304945 732.85074902 C-729.93432365 731.10549042 -729.93432365 731.10549042 -729 729 C-490.41 729 -251.82 729 -6 729 C-7.07455502 725.77633495 -7.70306842 725.17361888 -10.25 723.125 C-14.15440384 719.8912913 -17.77268195 716.59551346 -20.875 712.5625 C-23.13383229 709.83861401 -25.56819022 707.72689095 -28.2734375 705.46484375 C-31.86525089 702.41749076 -34.98569663 699.04239207 -38 695.4375 C-40.43195146 692.55772117 -43.00554608 690.30342609 -46 688 C-48.86166082 685.28509102 -51.47446212 682.46039445 -54 679.4375 C-56.43195146 676.55772117 -59.00554608 674.30342609 -62 672 C-64.49687109 669.6249275 -66.77336707 667.29462281 -68.875 664.5625 C-71.13157284 661.84133864 -73.56217204 659.73131032 -76.265625 657.47265625 C-79.46174071 654.75883728 -82.31905181 651.88523265 -84.875 648.5625 C-87.13157284 645.84133864 -89.56217204 643.73131032 -92.265625 641.47265625 C-95.46174071 638.75883728 -98.31905181 635.88523265 -100.875 632.5625 C-103.13157284 629.84133864 -105.56217204 627.73131032 -108.265625 625.47265625 C-111.46174071 622.75883728 -114.31905181 619.88523265 -116.875 616.5625 C-119.13383229 613.83861401 -121.56819022 611.72689095 -124.2734375 609.46484375 C-127.86525089 606.41749076 -130.98569663 603.04239207 -134 599.4375 C-136.43195146 596.55772117 -139.00554608 594.30342609 -142 592 C-144.49687109 589.6249275 -146.77336707 587.29462281 -148.875 584.5625 C-151.13157284 581.84133864 -153.56217204 579.73131032 -156.265625 577.47265625 C-159.46174071 574.75883728 -162.31905181 571.88523265 -164.875 568.5625 C-167.13157284 565.84133864 -169.56217204 563.73131032 -172.265625 561.47265625 C-175.46174071 558.75883728 -178.31905181 555.88523265 -180.875 552.5625 C-183.13383229 549.83861401 -185.56819022 547.72689095 -188.2734375 545.46484375 C-191.86525089 542.41749076 -194.98569663 539.04239207 -198 535.4375 C-200.43195146 532.55772117 -203.00554608 530.30342609 -206 528 C-208.86166082 525.28509102 -211.47446212 522.46039445 -214 519.4375 C-216.43195146 516.55772117 -219.00554608 514.30342609 -222 512 C-224.49687109 509.6249275 -226.77336707 507.29462281 -228.875 504.5625 C-231.13157284 501.84133864 -233.56217204 499.73131032 -236.265625 497.47265625 C-239.46174071 494.75883728 -242.31905181 491.88523265 -244.875 488.5625 C-247.13157284 485.84133864 -249.56217204 483.73131032 -252.265625 481.47265625 C-255.46174071 478.75883728 -258.31905181 475.88523265 -260.875 472.5625 C-263.13157284 469.84133864 -265.56217204 467.73131032 -268.265625 465.47265625 C-271.46174071 462.75883728 -274.31905181 459.88523265 -276.875 456.5625 C-279.13383229 453.83861401 -281.56819022 451.72689095 -284.2734375 449.46484375 C-287.86525089 446.41749076 -290.98569663 443.04239207 -294 439.4375 C-296.43195146 436.55772117 -299.00554608 434.30342609 -302 432 C-304.49687109 429.6249275 -306.77336707 427.29462281 -308.875 424.5625 C-311.13157284 421.84133864 -313.56217204 419.73131032 -316.265625 417.47265625 C-319.46174071 414.75883728 -322.31905181 411.88523265 -324.875 408.5625 C-327.13157284 405.84133864 -329.56217204 403.73131032 -332.265625 401.47265625 C-335.46174071 398.75883728 -338.31905181 395.88523265 -340.875 392.5625 C-343.13157284 389.84133864 -345.56217204 387.73131032 -348.265625 385.47265625 C-351.48529087 382.73884086 -354.35104985 379.83735503 -356.9375 376.5 C-359.37686416 373.54319496 -362.00341756 371.38364512 -365 369 C-364.12853119 364.41793141 -361.43495844 362.02316519 -358.21063995 358.84428978 C-357.29003911 357.91894603 -357.29003911 357.91894603 -356.35084027 356.97490847 C-354.27616906 354.89325551 -352.1908998 352.82254894 -350.10559082 350.7515564 C-348.60749528 349.25286915 -347.11006007 347.75352158 -345.61323214 346.25356829 C-341.48537422 342.1209256 -337.3481895 337.99772978 -333.20948815 333.87595034 C-328.75276307 329.43419301 -324.30467842 324.98379834 -319.85557556 320.53440857 C-312.14144905 312.82212247 -304.42194072 305.11526327 -296.69871521 297.4120903 C-288.59614764 289.33048599 -280.49689791 281.24557923 -272.4019928 273.15629959 C-271.89896278 272.65362092 -271.39593276 272.15094224 -270.87765941 271.63303088 C-268.32309028 269.08020457 -265.7685858 266.52731358 -263.21410972 263.97439416 C-245.1115783 245.88305765 -227.00247699 227.79831095 -208.88916016 209.71777344 C-204.49829264 205.33483728 -200.10743238 200.95189384 -195.71661377 196.56890869 C-194.89959907 195.75335186 -194.89959907 195.75335186 -194.06607903 194.92131913 C-181.41233582 182.29004029 -168.76122947 169.65612177 -156.11083984 157.02148438 C-155.56891214 156.48023431 -155.02698443 155.93898425 -154.46863467 155.38133266 C-142.10213381 143.03026772 -129.73637219 130.67846301 -117.37154388 118.32572365 C-116.85224296 117.80693252 -116.33294204 117.28814139 -115.79790473 116.75362932 C-111.12718938 112.08749693 -106.45647799 107.42136059 -101.78589028 102.75510044 C-89.62502263 90.60552823 -77.46192225 78.45820082 -65.29491794 66.31477393 C-57.66655716 58.70112869 -50.03983387 51.0858465 -42.41435397 43.46931575 C-38.00855023 39.06884928 -33.60187603 34.6692628 -29.19302177 30.27185249 C-25.16314495 26.25243101 -21.13552012 22.23076765 -17.10972303 18.20726009 C-15.6469662 16.74617385 -14.18334379 15.28595361 -12.71880585 13.82665269 C-10.74002854 11.85472622 -8.76430392 9.87979256 -6.78936005 7.90402794 C-6.20989551 7.32804796 -5.63043098 6.75206798 -5.03340691 6.15863407 C-2.16186273 3.34813045 -2.16186273 3.34813045 0 0 Z " fill="#3C3C3A" transform="translate(1479,90)"/>
<path d="M0 0 C-1.375 2.5 -1.375 2.5 -3 5 C-3.66 5 -4.32 5 -5 5 C-5.66 6.32 -6.32 7.64 -7 9 C-7.66 9 -8.32 9 -9 9 C-9.66 10.32 -10.32 11.64 -11 13 C-11.66 13 -12.32 13 -13 13 C-13.66 14.32 -14.32 15.64 -15 17 C-15.66 17 -16.32 17 -17 17 C-17.66 18.32 -18.32 19.64 -19 21 C-19.66 21 -20.32 21 -21 21 C-21.66 22.32 -22.32 23.64 -23 25 C-23.66 25 -24.32 25 -25 25 C-25.66 26.32 -26.32 27.64 -27 29 C-27.66 29 -28.32 29 -29 29 C-29.33 29.99 -29.66 30.98 -30 32 C-32.4375 34.6875 -32.4375 34.6875 -35 37 C-35.66 37 -36.32 37 -37 37 C-37.66 38.32 -38.32 39.64 -39 41 C-39.66 41 -40.32 41 -41 41 C-41.66 42.32 -42.32 43.64 -43 45 C-43.66 45 -44.32 45 -45 45 C-45.66 46.32 -46.32 47.64 -47 49 C-47.66 49 -48.32 49 -49 49 C-49.66 50.32 -50.32 51.64 -51 53 C-51.66 53 -52.32 53 -53 53 C-53.66 54.32 -54.32 55.64 -55 57 C-55.66 57 -56.32 57 -57 57 C-57.66 58.32 -58.32 59.64 -59 61 C-59.66 61 -60.32 61 -61 61 C-61.66 62.32 -62.32 63.64 -63 65 C-63.66 65 -64.32 65 -65 65 C-65.66 66.32 -66.32 67.64 -67 69 C-67.66 69 -68.32 69 -69 69 C-69.66 70.32 -70.32 71.64 -71 73 C-71.66 73 -72.32 73 -73 73 C-73.66 74.32 -74.32 75.64 -75 77 C-75.66 77 -76.32 77 -77 77 C-77.66 78.32 -78.32 79.64 -79 81 C-79.66 81 -80.32 81 -81 81 C-81.33 81.99 -81.66 82.98 -82 84 C-83.48705316 85.26076246 -84.9776234 86.51851847 -86.5078125 87.7265625 C-88.32149815 89.27436753 -89.58629346 91.09149618 -91 93 C-91.66 93 -92.32 93 -93 93 C-93.66 94.32 -94.32 95.64 -95 97 C-95.66 97 -96.32 97 -97 97 C-97.66 98.32 -98.32 99.64 -99 101 C-99.66 101 -100.32 101 -101 101 C-101.66 102.32 -102.32 103.64 -103 105 C-103.66 105 -104.32 105 -105 105 C-105.2475 105.5775 -105.495 106.155 -105.75 106.75 C-107.18299988 109.32939979 -108.78424676 111.06121592 -111 113 C-111.66 113 -112.32 113 -113 113 C-113.66 114.32 -114.32 115.64 -115 117 C-115.66 117 -116.32 117 -117 117 C-117.66 118.32 -118.32 119.64 -119 121 C-119.66 121 -120.32 121 -121 121 C-121.66 122.32 -122.32 123.64 -123 125 C-123.66 125 -124.32 125 -125 125 C-125.226875 125.556875 -125.45375 126.11375 -125.6875 126.6875 C-127.36718835 129.6469509 -129.54133285 131.66126784 -132 134 C-132.556875 134.598125 -133.11375 135.19625 -133.6875 135.8125 C-135 137 -135 137 -137 137 C-137.66 138.32 -138.32 139.64 -139 141 C-139.66 141 -140.32 141 -141 141 C-141.66 142.32 -142.32 143.64 -143 145 C-143.66 145 -144.32 145 -145 145 C-145.66 146.32 -146.32 147.64 -147 149 C-147.66 149 -148.32 149 -149 149 C-149.66 150.32 -150.32 151.64 -151 153 C-151.66 153 -152.32 153 -153 153 C-153.33 153.99 -153.66 154.98 -154 156 C-156.4375 158.6875 -156.4375 158.6875 -159 161 C-159.66 161 -160.32 161 -161 161 C-161.66 162.32 -162.32 163.64 -163 165 C-163.66 165 -164.32 165 -165 165 C-165.66 166.32 -166.32 167.64 -167 169 C-167.66 169 -168.32 169 -169 169 C-169.66 170.32 -170.32 171.64 -171 173 C-171.66 173 -172.32 173 -173 173 C-173.66 174.32 -174.32 175.64 -175 177 C-175.66 177 -176.32 177 -177 177 C-177.66 178.32 -178.32 179.64 -179 181 C-179.66 181 -180.32 181 -181 181 C-181.66 182.32 -182.32 183.64 -183 185 C-183.66 185 -184.32 185 -185 185 C-185.66 186.32 -186.32 187.64 -187 189 C-187.66 189 -188.32 189 -189 189 C-189.33 189.99 -189.66 190.98 -190 192 C-192.4375 194.6875 -192.4375 194.6875 -195 197 C-195.66 197 -196.32 197 -197 197 C-197.66 198.32 -198.32 199.64 -199 201 C-199.66 201 -200.32 201 -201 201 C-201.66 202.32 -202.32 203.64 -203 205 C-203.66 205 -204.32 205 -205 205 C-205.66 206.32 -206.32 207.64 -207 209 C-207.66 209 -208.32 209 -209 209 C-209.66 210.32 -210.32 211.64 -211 213 C-211.66 213 -212.32 213 -213 213 C-213.66 214.32 -214.32 215.64 -215 217 C-215.66 217 -216.32 217 -217 217 C-217.66 218.32 -218.32 219.64 -219 221 C-219.66 221 -220.32 221 -221 221 C-221.66 222.32 -222.32 223.64 -223 225 C-223.66 225 -224.32 225 -225 225 C-225.66 226.32 -226.32 227.64 -227 229 C-227.66 229 -228.32 229 -229 229 C-229.66 230.32 -230.32 231.64 -231 233 C-231.66 233 -232.32 233 -233 233 C-233.66 234.32 -234.32 235.64 -235 237 C-235.66 237 -236.32 237 -237 237 C-237.66 238.32 -238.32 239.64 -239 241 C-239.66 241 -240.32 241 -241 241 C-241.33 241.99 -241.66 242.98 -242 244 C-243.48705316 245.26076246 -244.9776234 246.51851847 -246.5078125 247.7265625 C-248.32149815 249.27436753 -249.58629346 251.09149618 -251 253 C-251.66 253 -252.32 253 -253 253 C-253.66 254.32 -254.32 255.64 -255 257 C-255.66 257 -256.32 257 -257 257 C-257.66 258.32 -258.32 259.64 -259 261 C-259.66 261 -260.32 261 -261 261 C-261.66 262.32 -262.32 263.64 -263 265 C-263.66 265 -264.32 265 -265 265 C-265.2475 265.5775 -265.495 266.155 -265.75 266.75 C-267.18299988 269.32939979 -268.78424676 271.06121592 -271 273 C-271.66 273 -272.32 273 -273 273 C-273.66 274.32 -274.32 275.64 -275 277 C-275.66 277 -276.32 277 -277 277 C-277.66 278.32 -278.32 279.64 -279 281 C-279.66 281 -280.32 281 -281 281 C-281.66 282.32 -282.32 283.64 -283 285 C-283.66 285 -284.32 285 -285 285 C-285.226875 285.556875 -285.45375 286.11375 -285.6875 286.6875 C-287.36718835 289.6469509 -289.54133285 291.66126784 -292 294 C-292.556875 294.598125 -293.11375 295.19625 -293.6875 295.8125 C-295 297 -295 297 -297 297 C-297.66 298.32 -298.32 299.64 -299 301 C-299.66 301 -300.32 301 -301 301 C-301.66 302.32 -302.32 303.64 -303 305 C-303.66 305 -304.32 305 -305 305 C-305.66 306.32 -306.32 307.64 -307 309 C-307.66 309 -308.32 309 -309 309 C-309.66 310.32 -310.32 311.64 -311 313 C-311.66 313 -312.32 313 -313 313 C-313.33 313.99 -313.66 314.98 -314 316 C-316.4375 318.6875 -316.4375 318.6875 -319 321 C-319.66 321 -320.32 321 -321 321 C-321.66 322.32 -322.32 323.64 -323 325 C-323.66 325 -324.32 325 -325 325 C-325.66 326.32 -326.32 327.64 -327 329 C-327.66 329 -328.32 329 -329 329 C-329.66 330.32 -330.32 331.64 -331 333 C-331.66 333 -332.32 333 -333 333 C-333.66 334.32 -334.32 335.64 -335 337 C-335.66 337 -336.32 337 -337 337 C-337.66 338.32 -338.32 339.64 -339 341 C-339.66 341 -340.32 341 -341 341 C-341.66 342.32 -342.32 343.64 -343 345 C-343.66 345 -344.32 345 -345 345 C-345.66 346.32 -346.32 347.64 -347 349 C-347.66 349 -348.32 349 -349 349 C-349.33 349.99 -349.66 350.98 -350 352 C-352.4375 354.6875 -352.4375 354.6875 -355 357 C-355.66 357 -356.32 357 -357 357 C-357.66 358.32 -358.32 359.64 -359 361 C-359.66 361 -360.32 361 -361 361 C-361.66 362.32 -362.32 363.64 -363 365 C-363.66 365 -364.32 365 -365 365 C-365.66 366.32 -366.32 367.64 -367 369 C-367.66 369 -368.32 369 -369 369 C-369.66 370.32 -370.32 371.64 -371 373 C-371.66 373 -372.32 373 -373 373 C-373.66 374.32 -374.32 375.64 -375 377 C-375.66 377 -376.32 377 -377 377 C-377.66 378.32 -378.32 379.64 -379 381 C-379.66 381 -380.32 381 -381 381 C-381.66 382.32 -382.32 383.64 -383 385 C-383.66 385 -384.32 385 -385 385 C-385.66 386.32 -386.32 387.64 -387 389 C-387.66 389 -388.32 389 -389 389 C-389.66 390.32 -390.32 391.64 -391 393 C-391.66 393 -392.32 393 -393 393 C-393.66 394.32 -394.32 395.64 -395 397 C-395.66 397 -396.32 397 -397 397 C-397.66 398.32 -398.32 399.64 -399 401 C-399.66 401 -400.32 401 -401 401 C-401.33 401.99 -401.66 402.98 -402 404 C-403.48705316 405.26076246 -404.9776234 406.51851847 -406.5078125 407.7265625 C-408.32149815 409.27436753 -409.58629346 411.09149618 -411 413 C-411.66 413 -412.32 413 -413 413 C-413.66 414.32 -414.32 415.64 -415 417 C-415.66 417 -416.32 417 -417 417 C-417.66 418.32 -418.32 419.64 -419 421 C-419.66 421 -420.32 421 -421 421 C-421.66 422.32 -422.32 423.64 -423 425 C-423.66 425 -424.32 425 -425 425 C-425.33 425.99 -425.66 426.98 -426 428 C-428.4375 430.6875 -428.4375 430.6875 -431 433 C-431.66 433 -432.32 433 -433 433 C-433.66 434.32 -434.32 435.64 -435 437 C-435.66 437 -436.32 437 -437 437 C-437.66 438.32 -438.32 439.64 -439 441 C-439.66 441 -440.32 441 -441 441 C-441.66 442.32 -442.32 443.64 -443 445 C-443.66 445 -444.32 445 -445 445 C-445.226875 445.556875 -445.45375 446.11375 -445.6875 446.6875 C-447.36718835 449.6469509 -449.54133285 451.66126784 -452 454 C-452.556875 454.598125 -453.11375 455.19625 -453.6875 455.8125 C-455 457 -455 457 -457 457 C-457.66 458.32 -458.32 459.64 -459 461 C-459.66 461 -460.32 461 -461 461 C-461.66 462.32 -462.32 463.64 -463 465 C-463.66 465 -464.32 465 -465 465 C-465.66 466.32 -466.32 467.64 -467 469 C-467.66 469 -468.32 469 -469 469 C-469.66 470.32 -470.32 471.64 -471 473 C-471.66 473 -472.32 473 -473 473 C-473.33 473.99 -473.66 474.98 -474 476 C-476.4375 478.6875 -476.4375 478.6875 -479 481 C-479.66 481 -480.32 481 -481 481 C-481.66 482.32 -482.32 483.64 -483 485 C-483.66 485 -484.32 485 -485 485 C-485.66 486.32 -486.32 487.64 -487 489 C-487.66 489 -488.32 489 -489 489 C-489.66 490.32 -490.32 491.64 -491 493 C-491.66 493 -492.32 493 -493 493 C-493.66 494.32 -494.32 495.64 -495 497 C-495.66 497 -496.32 497 -497 497 C-497.66 498.32 -498.32 499.64 -499 501 C-499.66 501 -500.32 501 -501 501 C-501.66 502.32 -502.32 503.64 -503 505 C-503.66 505 -504.32 505 -505 505 C-505.66 506.32 -506.32 507.64 -507 509 C-507.66 509 -508.32 509 -509 509 C-509.33 509.99 -509.66 510.98 -510 512 C-512.4375 514.6875 -512.4375 514.6875 -515 517 C-515.66 517 -516.32 517 -517 517 C-517.66 518.32 -518.32 519.64 -519 521 C-519.66 521 -520.32 521 -521 521 C-521.66 522.32 -522.32 523.64 -523 525 C-523.66 525 -524.32 525 -525 525 C-525.66 526.32 -526.32 527.64 -527 529 C-527.66 529 -528.32 529 -529 529 C-529.66 530.32 -530.32 531.64 -531 533 C-531.66 533 -532.32 533 -533 533 C-533.66 534.32 -534.32 535.64 -535 537 C-535.66 537 -536.32 537 -537 537 C-537.66 538.32 -538.32 539.64 -539 541 C-539.66 541 -540.32 541 -541 541 C-541.66 542.32 -542.32 543.64 -543 545 C-543.66 545 -544.32 545 -545 545 C-545.66 546.32 -546.32 547.64 -547 549 C-547.66 549 -548.32 549 -549 549 C-549.66 550.32 -550.32 551.64 -551 553 C-551.66 553 -552.32 553 -553 553 C-553.66 554.32 -554.32 555.64 -555 557 C-555.66 557 -556.32 557 -557 557 C-557.66 558.32 -558.32 559.64 -559 561 C-559.66 561 -560.32 561 -561 561 C-561.33 561.99 -561.66 562.98 -562 564 C-563.48705316 565.26076246 -564.9776234 566.51851847 -566.5078125 567.7265625 C-568.32149815 569.27436753 -569.58629346 571.09149618 -571 573 C-571.66 573 -572.32 573 -573 573 C-573.66 574.32 -574.32 575.64 -575 577 C-575.66 577 -576.32 577 -577 577 C-577.66 578.32 -578.32 579.64 -579 581 C-579.66 581 -580.32 581 -581 581 C-581.66 582.32 -582.32 583.64 -583 585 C-583.66 585 -584.32 585 -585 585 C-585.33 585.99 -585.66 586.98 -586 588 C-588.4375 590.6875 -588.4375 590.6875 -591 593 C-591.66 593 -592.32 593 -593 593 C-593.66 594.32 -594.32 595.64 -595 597 C-595.66 597 -596.32 597 -597 597 C-597.66 598.32 -598.32 599.64 -599 601 C-599.66 601 -600.32 601 -601 601 C-601.66 602.32 -602.32 603.64 -603 605 C-603.66 605 -604.32 605 -605 605 C-605.226875 605.556875 -605.45375 606.11375 -605.6875 606.6875 C-607.36718835 609.6469509 -609.54133285 611.66126784 -612 614 C-612.8353125 614.8971875 -612.8353125 614.8971875 -613.6875 615.8125 C-615 617 -615 617 -617 617 C-617.66 618.32 -618.32 619.64 -619 621 C-619.66 621 -620.32 621 -621 621 C-621.66 622.32 -622.32 623.64 -623 625 C-623.66 625 -624.32 625 -625 625 C-625.66 626.32 -626.32 627.64 -627 629 C-627.66 629 -628.32 629 -629 629 C-629.66 630.32 -630.32 631.64 -631 633 C-631.66 633 -632.32 633 -633 633 C-633.33 633.99 -633.66 634.98 -634 636 C-636.4375 638.6875 -636.4375 638.6875 -639 641 C-639.66 641 -640.32 641 -641 641 C-641.66 642.32 -642.32 643.64 -643 645 C-643.66 645 -644.32 645 -645 645 C-645.66 646.32 -646.32 647.64 -647 649 C-647.66 649 -648.32 649 -649 649 C-649.66 650.32 -650.32 651.64 -651 653 C-651.66 653 -652.32 653 -653 653 C-653.66 654.32 -654.32 655.64 -655 657 C-655.66 657 -656.32 657 -657 657 C-657.66 658.32 -658.32 659.64 -659 661 C-659.66 661 -660.32 661 -661 661 C-661.66 662.32 -662.32 663.64 -663 665 C-663.66 665 -664.32 665 -665 665 C-665.66 666.32 -666.32 667.64 -667 669 C-667.66 669 -668.32 669 -669 669 C-669.33 669.99 -669.66 670.98 -670 672 C-672.4375 674.6875 -672.4375 674.6875 -675 677 C-675.66 677 -676.32 677 -677 677 C-677.66 678.32 -678.32 679.64 -679 681 C-679.66 681 -680.32 681 -681 681 C-681.66 682.32 -682.32 683.64 -683 685 C-683.66 685 -684.32 685 -685 685 C-685.66 686.32 -686.32 687.64 -687 689 C-687.66 689 -688.32 689 -689 689 C-689.66 690.32 -690.32 691.64 -691 693 C-691.66 693 -692.32 693 -693 693 C-693.66 694.32 -694.32 695.64 -695 697 C-695.66 697 -696.32 697 -697 697 C-697.66 698.32 -698.32 699.64 -699 701 C-699.66 701 -700.32 701 -701 701 C-701.66 702.32 -702.32 703.64 -703 705 C-703.66 705 -704.32 705 -705 705 C-705.66 706.32 -706.32 707.64 -707 709 C-707.66 709 -708.32 709 -709 709 C-709.66 710.32 -710.32 711.64 -711 713 C-711.66 713 -712.32 713 -713 713 C-713.66 714.32 -714.32 715.64 -715 717 C-715.66 717 -716.32 717 -717 717 C-717.66 718.32 -718.32 719.64 -719 721 C-719.66 721 -720.32 721 -721 721 C-721.33 721.99 -721.66 722.98 -722 724 C-723.48705316 725.26076246 -724.9776234 726.51851847 -726.5078125 727.7265625 C-728.32149815 729.27436753 -729.58629346 731.09149618 -731 733 C-731.66 733 -732.32 733 -733 733 C-733.66 734.32 -734.32 735.64 -735 737 C-735.66 737 -736.32 737 -737 737 C-737.66 738.32 -738.32 739.64 -739 741 C-739.66 741 -740.32 741 -741 741 C-741.66 742.32 -742.32 743.64 -743 745 C-743.66 745 -744.32 745 -745 745 C-745.33 745.99 -745.66 746.98 -746 748 C-748.4375 750.6875 -748.4375 750.6875 -751 753 C-751.66 753 -752.32 753 -753 753 C-753.66 754.32 -754.32 755.64 -755 757 C-755.66 757 -756.32 757 -757 757 C-757.66 758.32 -758.32 759.64 -759 761 C-759.66 761 -760.32 761 -761 761 C-761.66 762.32 -762.32 763.64 -763 765 C-763.66 765 -764.32 765 -765 765 C-765.3403125 765.8353125 -765.3403125 765.8353125 -765.6875 766.6875 C-767.36718835 769.6469509 -769.54133285 771.66126784 -772 774 C-772.8353125 774.8971875 -772.8353125 774.8971875 -773.6875 775.8125 C-775 777 -775 777 -777 777 C-777.66 778.32 -778.32 779.64 -779 781 C-779.66 781 -780.32 781 -781 781 C-781.66 782.32 -782.32 783.64 -783 785 C-783.66 785 -784.32 785 -785 785 C-785.66 786.32 -786.32 787.64 -787 789 C-787.66 789 -788.32 789 -789 789 C-789.66 790.32 -790.32 791.64 -791 793 C-791.66 793 -792.32 793 -793 793 C-793.33 793.99 -793.66 794.98 -794 796 C-796.4375 798.6875 -796.4375 798.6875 -799 801 C-799.66 801 -800.32 801 -801 801 C-801.66 802.32 -802.32 803.64 -803 805 C-803.66 805 -804.32 805 -805 805 C-805.66 806.32 -806.32 807.64 -807 809 C-807.66 809 -808.32 809 -809 809 C-809.66 810.32 -810.32 811.64 -811 813 C-811.66 813 -812.32 813 -813 813 C-813.66 814.32 -814.32 815.64 -815 817 C-815.66 817 -816.32 817 -817 817 C-817.66 818.32 -818.32 819.64 -819 821 C-819.66 821 -820.32 821 -821 821 C-821.66 822.32 -822.32 823.64 -823 825 C-823.66 825 -824.32 825 -825 825 C-825.66 826.32 -826.32 827.64 -827 829 C-827.66 829 -828.32 829 -829 829 C-829.33 829.99 -829.66 830.98 -830 832 C-832.4375 834.6875 -832.4375 834.6875 -835 837 C-835.66 837 -836.32 837 -837 837 C-837.66 838.32 -838.32 839.64 -839 841 C-839.66 841 -840.32 841 -841 841 C-841.66 842.32 -842.32 843.64 -843 845 C-843.66 845 -844.32 845 -845 845 C-845.66 846.32 -846.32 847.64 -847 849 C-847.66 849 -848.32 849 -849 849 C-849.66 850.32 -850.32 851.64 -851 853 C-851.66 853 -852.32 853 -853 853 C-853.66 854.32 -854.32 855.64 -855 857 C-855.66 857 -856.32 857 -857 857 C-857.66 858.32 -858.32 859.64 -859 861 C-859.66 861 -860.32 861 -861 861 C-861.66 862.32 -862.32 863.64 -863 865 C-863.66 865 -864.32 865 -865 865 C-865.66 866.32 -866.32 867.64 -867 869 C-867.66 869 -868.32 869 -869 869 C-869.66 870.32 -870.32 871.64 -871 873 C-871.66 873 -872.32 873 -873 873 C-873.66 874.32 -874.32 875.64 -875 877 C-875.66 877 -876.32 877 -877 877 C-877.66 878.32 -878.32 879.64 -879 881 C-879.66 881 -880.32 881 -881 881 C-881.33 881.99 -881.66 882.98 -882 884 C-883.48705316 885.26076246 -884.9776234 886.51851847 -886.5078125 887.7265625 C-888.32149815 889.27436753 -889.58629346 891.09149618 -891 893 C-891.66 893 -892.32 893 -893 893 C-893.66 894.32 -894.32 895.64 -895 897 C-895.66 897 -896.32 897 -897 897 C-897.66 898.32 -898.32 899.64 -899 901 C-899.66 901 -900.32 901 -901 901 C-901.66 902.32 -902.32 903.64 -903 905 C-903.66 905 -904.32 905 -905 905 C-905.33 905.99 -905.66 906.98 -906 908 C-908.4375 910.6875 -908.4375 910.6875 -911 913 C-911.66 913 -912.32 913 -913 913 C-913.66 914.32 -914.32 915.64 -915 917 C-915.66 917 -916.32 917 -917 917 C-917.66 918.32 -918.32 919.64 -919 921 C-919.66 921 -920.32 921 -921 921 C-921.66 922.32 -922.32 923.64 -923 925 C-923.66 925 -924.32 925 -925 925 C-925.3403125 925.8353125 -925.3403125 925.8353125 -925.6875 926.6875 C-927.36718835 929.6469509 -929.54133285 931.66126784 -932 934 C-932.8353125 934.8971875 -932.8353125 934.8971875 -933.6875 935.8125 C-935 937 -935 937 -937 937 C-937.66 938.32 -938.32 939.64 -939 941 C-939.66 941 -940.32 941 -941 941 C-941.66 942.32 -942.32 943.64 -943 945 C-943.66 945 -944.32 945 -945 945 C-945.66 946.32 -946.32 947.64 -947 949 C-947.66 949 -948.32 949 -949 949 C-949.66 950.32 -950.32 951.64 -951 953 C-951.66 953 -952.32 953 -953 953 C-953.33 953.99 -953.66 954.98 -954 956 C-956.4375 958.6875 -956.4375 958.6875 -959 961 C-959.66 961 -960.32 961 -961 961 C-961.66 962.32 -962.32 963.64 -963 965 C-963.66 965 -964.32 965 -965 965 C-965.66 966.32 -966.32 967.64 -967 969 C-967.66 969 -968.32 969 -969 969 C-969.66 970.32 -970.32 971.64 -971 973 C-971.66 973 -972.32 973 -973 973 C-973.66 974.32 -974.32 975.64 -975 977 C-975.66 977 -976.32 977 -977 977 C-977.66 978.32 -978.32 979.64 -979 981 C-979.66 981 -980.32 981 -981 981 C-981.66 982.32 -982.32 983.64 -983 985 C-983.66 985 -984.32 985 -985 985 C-985.66 986.32 -986.32 987.64 -987 989 C-987.66 989 -988.32 989 -989 989 C-989.33 989.99 -989.66 990.98 -990 992 C-992.4375 994.6875 -992.4375 994.6875 -995 997 C-995.66 997 -996.32 997 -997 997 C-997.66 998.32 -998.32 999.64 -999 1001 C-999.66 1001 -1000.32 1001 -1001 1001 C-1001.66 1002.32 -1002.32 1003.64 -1003 1005 C-1003.66 1005 -1004.32 1005 -1005 1005 C-1005.66 1006.32 -1006.32 1007.64 -1007 1009 C-1007.66 1009 -1008.32 1009 -1009 1009 C-1009.66 1010.32 -1010.32 1011.64 -1011 1013 C-1011.66 1013 -1012.32 1013 -1013 1013 C-1013.66 1014.32 -1014.32 1015.64 -1015 1017 C-1015.66 1017 -1016.32 1017 -1017 1017 C-1017.66 1018.32 -1018.32 1019.64 -1019 1021 C-1019.66 1021 -1020.32 1021 -1021 1021 C-1021.66 1022.32 -1022.32 1023.64 -1023 1025 C-1023.66 1025 -1024.32 1025 -1025 1025 C-1025.66 1026.32 -1026.32 1027.64 -1027 1029 C-1027.66 1029 -1028.32 1029 -1029 1029 C-1029.66 1030.32 -1030.32 1031.64 -1031 1033 C-1031.66 1033 -1032.32 1033 -1033 1033 C-1033.66 1034.32 -1034.32 1035.64 -1035 1037 C-1035.66 1037 -1036.32 1037 -1037 1037 C-1037.66 1038.32 -1038.32 1039.64 -1039 1041 C-1039.66 1041 -1040.32 1041 -1041 1041 C-1041.33 1041.99 -1041.66 1042.98 -1042 1044 C-1043.48705316 1045.26076246 -1044.9776234 1046.51851847 -1046.5078125 1047.7265625 C-1048.32149815 1049.27436753 -1049.58629346 1051.09149618 -1051 1053 C-1051.66 1053 -1052.32 1053 -1053 1053 C-1053.66 1054.32 -1054.32 1055.64 -1055 1057 C-1055.66 1057 -1056.32 1057 -1057 1057 C-1057.66 1058.32 -1058.32 1059.64 -1059 1061 C-1059.66 1061 -1060.32 1061 -1061 1061 C-1061.66 1062.32 -1062.32 1063.64 -1063 1065 C-1063.66 1065 -1064.32 1065 -1065 1065 C-1065.33 1065.99 -1065.66 1066.98 -1066 1068 C-1068.4375 1070.6875 -1068.4375 1070.6875 -1071 1073 C-1071.66 1073 -1072.32 1073 -1073 1073 C-1073.66 1074.32 -1074.32 1075.64 -1075 1077 C-1075.66 1077 -1076.32 1077 -1077 1077 C-1077.33 1077.99 -1077.66 1078.98 -1078 1080 C-1111.66 1080 -1145.32 1080 -1180 1080 C-1173.24989695 1072.12487977 -1173.24989695 1072.12487977 -1170.47699204 1069.30458135 C-1169.84198181 1068.65655216 -1169.20697158 1068.00852298 -1168.55271862 1067.34085654 C-1167.53212784 1066.3061316 -1167.53212784 1066.3061316 -1166.49091905 1065.25050312 C-1165.38055648 1064.11940244 -1165.38055648 1064.11940244 -1164.24776233 1062.96545124 C-1161.76280064 1060.4352443 -1159.2746138 1057.90823402 -1156.78639889 1055.38122654 C-1154.97987234 1053.54331509 -1153.17352538 1051.7052271 -1151.36734197 1049.86697844 C-1146.90576419 1045.32704661 -1142.4416157 1040.78965047 -1137.97655017 1036.2531491 C-1134.24238561 1032.45917775 -1130.5091093 1028.66433429 -1126.77637244 1024.86895829 C-1111.91054173 1009.75392364 -1097.0387685 994.6447475 -1082.16445347 979.53806234 C-1077.69257311 974.99627427 -1073.22105435 970.45413042 -1068.74971759 965.91180718 C-1002.87653275 898.99340349 -936.91883908 832.15930428 -870.82691956 765.45689392 C-870.07830538 764.70134893 -869.3296912 763.94580395 -868.55839174 763.16736366 C-834.44924423 728.74251112 -800.32699761 694.33067228 -766.19157215 659.93187718 C-751.81491411 645.44413382 -737.44038674 630.95427685 -723.06706681 616.46322177 C-720.65977026 614.03622994 -718.25241641 611.60929495 -715.84506031 609.18236219 C-678.8211511 571.85635725 -641.84098929 534.48829569 -604.98742676 496.99401855 C-604.19635186 496.18919175 -603.40527696 495.38436495 -602.5902301 494.55514945 C-589.83752341 481.58021294 -577.0885268 468.601632 -564.34001698 455.62257205 C-527.5645135 418.18211767 -490.76249603 380.76948724 -453.78205204 343.53127956 C-453.01966499 342.76355259 -452.25727794 341.99582562 -451.47178825 341.20483419 C-434.72473207 324.34144471 -417.96391145 307.49180486 -401.19005541 290.65507449 C-394.43858852 283.87782044 -387.68909041 277.09860676 -380.94026375 270.31872368 C-380.20165663 269.57681346 -379.46304952 268.83490324 -378.70206037 268.0705109 C-355.01018064 244.2707362 -331.4825615 220.31631427 -308.03791818 196.27315146 C-284.37218669 172.00477874 -260.54986876 147.90232782 -236.50503529 124.00919373 C-233.16275573 120.68792364 -229.82226987 117.3648549 -226.48286438 114.04069519 C-225.82833778 113.38928684 -225.17381118 112.7378785 -224.49945043 112.06673051 C-214.8680109 102.47252826 -205.38728607 92.74599062 -195.98282051 82.9296093 C-182.2080173 68.56657782 -168.24045487 54.42657837 -153.84056091 40.68812561 C-153.28645761 40.15861866 -152.73235431 39.62911172 -152.16146 39.08355911 C-106.6475474 -4.29799805 -61.76926264 -13.21307548 0 0 Z " fill="#3D3D3B" transform="translate(1521,0)"/>
<path d="M0 0 C1.03382813 -0.01224609 2.06765625 -0.02449219 3.1328125 -0.03710938 C10.82046118 -0.05163264 17.93899187 0.75049729 25.25 3.1875 C25.25 3.8475 25.25 4.5075 25.25 5.1875 C26.44625 5.3525 27.6425 5.5175 28.875 5.6875 C39.96990286 8.16856489 49.82193419 15.90808684 58.25 23.1875 C58.79277588 23.62022217 59.33555176 24.05294434 59.89477539 24.4987793 C64.35250819 28.12482288 67.62917897 31.98052794 70.8125 36.75 C71.28502197 37.45253906 71.75754395 38.15507812 72.24438477 38.87890625 C86.21951169 60.1047568 89.97352703 84.74273218 84.875 109.625 C81.43429601 124.03965195 73.30937644 137.44741388 63.25 148.1875 C62.66734375 148.8371875 62.0846875 149.486875 61.484375 150.15625 C56.96632252 154.969876 51.76781345 158.60211904 46.25 162.1875 C45.39019531 162.77660156 44.53039062 163.36570312 43.64453125 163.97265625 C21.71925185 178.04318111 -3.96830324 177.65236404 -28.6796875 172.35546875 C-31.98956505 171.52955734 -34.14731838 170.45177148 -36.75 168.1875 C-38.5134375 167.5996875 -38.5134375 167.5996875 -40.3125 167 C-46.21406624 164.88682322 -50.88435198 161.05139696 -55.75 157.1875 C-56.58789062 156.52878906 -57.42578125 155.87007812 -58.2890625 155.19140625 C-65.81707216 148.87026798 -71.30710602 141.29196688 -76.75 133.1875 C-77.34941406 132.31738281 -77.94882812 131.44726562 -78.56640625 130.55078125 C-89.83852773 112.27405164 -91.81793554 87.81665329 -87.25 67.1875 C-85.05870751 58.59215779 -81.1001142 50.86767231 -76.75 43.1875 C-76.20472656 42.18976563 -75.65945313 41.19203125 -75.09765625 40.1640625 C-67.73447283 27.59804287 -55.33523225 15.56642445 -41.75 10.1875 C-41.09 9.5275 -40.43 8.8675 -39.75 8.1875 C-38.43 8.1875 -37.11 8.1875 -35.75 8.1875 C-35.75 7.5275 -35.75 6.8675 -35.75 6.1875 C-32.87605502 5.37110682 -30.0009487 4.55927859 -27.125 3.75 C-26.31675781 3.51990234 -25.50851562 3.28980469 -24.67578125 3.05273438 C-16.31164076 0.70669497 -8.68010446 0.00533176 0 0 Z " fill="#F4F4F4" transform="translate(617.75,235.8125)"/>
<path d="M0 0 C0.66 0.33 1.32 0.66 2 1 C2 1.99 2 2.98 2 4 C1.37210167 4.0002442 0.74420333 4.0004884 0.09727778 4.00074001 C-68.2359568 4.02745763 -136.5691884 4.05910201 -204.90240479 4.11663818 C-206.43255141 4.11792445 -206.43255141 4.11792445 -207.9936101 4.1192367 C-230.16097501 4.13790061 -252.32833905 4.15745293 -274.49570237 4.17792095 C-285.36594987 4.18795248 -296.23619754 4.19778761 -307.10644531 4.20751953 C-308.72905992 4.20897724 -308.72905992 4.20897724 -310.38445463 4.2104644 C-345.47180422 4.24189374 -380.55914612 4.26034425 -415.64650736 4.27209247 C-451.69144837 4.28422965 -487.73635718 4.3094042 -523.78127672 4.35107614 C-528.86775703 4.35695057 -533.9542375 4.36267535 -539.04071808 4.36830902 C-540.04184933 4.36942248 -541.04298059 4.37053594 -542.07444916 4.37168314 C-558.21556781 4.3892499 -574.35666177 4.39299811 -590.4977887 4.39162921 C-606.70952946 4.39054739 -622.9212067 4.40390335 -639.13292333 4.43216428 C-648.77467392 4.44852884 -658.41628103 4.45365624 -668.05804038 4.44297175 C-674.49008725 4.43693237 -680.92200957 4.44525721 -687.35402724 4.4654923 C-691.02450667 4.47662155 -694.69469332 4.48128707 -698.36517403 4.46851245 C-702.31056103 4.45492582 -706.25546575 4.47192184 -710.20083237 4.49219131 C-711.35187041 4.48328761 -712.50290846 4.4743839 -713.68882644 4.46521038 C-714.73560967 4.47563297 -715.7823929 4.48605556 -716.86089683 4.49679399 C-718.21512061 4.49772987 -718.21512061 4.49772987 -719.59670244 4.49868466 C-722.7317155 5.15263204 -723.9578649 6.60541471 -726 9 C-726.66 8.67 -727.32 8.34 -728 8 C-726.41889218 5.34009201 -725.42774627 3.82655582 -723 2 C-719.04693181 1.07799161 -715.13693038 1.20613747 -711.09340191 1.26171303 C-709.86693851 1.25478996 -708.64047512 1.2478669 -707.37684616 1.24073404 C-703.95970457 1.22755029 -700.54457269 1.24138552 -697.12762228 1.26640284 C-693.41545659 1.28698657 -689.70340067 1.2727875 -685.99121362 1.2629379 C-679.48120339 1.25048458 -672.97152185 1.26037603 -666.46154976 1.28476715 C-656.78148822 1.32093516 -647.10163449 1.32278596 -637.4215177 1.31751522 C-621.13918149 1.30962607 -604.85699122 1.32970192 -588.57469749 1.36561966 C-572.44913194 1.40110063 -556.32362715 1.42421104 -540.19802284 1.43073654 C-539.19603782 1.43114898 -538.1940528 1.43156142 -537.16170459 1.43198635 C-532.07329696 1.4340163 -526.98488929 1.43582462 -521.89648155 1.43754761 C-485.83890529 1.45015594 -449.78140846 1.49059639 -413.72387695 1.54736328 C-378.69067813 1.60245393 -343.65750103 1.64496341 -308.62426758 1.67041016 C-307.54472278 1.67119931 -306.46517799 1.67198847 -305.35291972 1.67280154 C-294.51185983 1.68071254 -283.67079978 1.68836744 -272.82973958 1.6958347 C-250.74450886 1.71105269 -228.65927956 1.72798021 -206.5740509 1.74594116 C-205.05082784 1.74717677 -205.05082784 1.74717677 -203.4968326 1.74843734 C-135.66452202 1.80365761 -67.83225552 1.89873071 0 2 C0 1.34 0 0.68 0 0 Z " fill="#6C6C6C" transform="translate(1473,817)"/>
<path d="M0 0 C0 3 0 3 -1.4375 4.5 C-1.953125 4.995 -2.46875 5.49 -3 6 C-3.33 6.99 -3.66 7.98 -4 9 C286.4 9 576.8 9 876 9 C876 9.33 876 9.66 876 10 C583.95 10 291.9 10 -9 10 C-3 3 -3 3 0 0 Z " fill="#474745" transform="translate(648,922)"/>
<path d="M0 0 C0 3 0 3 -1 5 C33.32 5 67.64 5 103 5 C101.97037159 10.14814203 101.52967813 10.94839667 97.9375 14.3125 C96.83728516 15.35857422 96.83728516 15.35857422 95.71484375 16.42578125 C95.14894531 16.94527344 94.58304688 17.46476563 94 18 C93.34 17.67 92.68 17.34 92 17 C92.56589844 16.44570313 93.13179687 15.89140625 93.71484375 15.3203125 C94.81505859 14.23363281 94.81505859 14.23363281 95.9375 13.125 C96.66839844 12.40570312 97.39929688 11.68640625 98.15234375 10.9453125 C100.05667999 9.12972808 100.05667999 9.12972808 101 7 C66.02 7 31.04 7 -5 7 C-3.38262276 3.76524552 -2.52370777 2.29427979 0 0 Z " fill="#BBBBBB" transform="translate(450,813)"/>
<path d="M0 0 C0.495 0.99 0.495 0.99 1 2 C-0.11799986 3.33920838 -1.24461897 4.67122556 -2.375 6 C-3.00148438 6.7425 -3.62796875 7.485 -4.2734375 8.25 C-4.84320312 8.8275 -5.41296875 9.405 -6 10 C-6.66 10 -7.32 10 -8 10 C-8.2475 10.5775 -8.495 11.155 -8.75 11.75 C-10.18299988 14.32939979 -11.78424676 16.06121592 -14 18 C-14.66 18 -15.32 18 -16 18 C-16.2475 18.5775 -16.495 19.155 -16.75 19.75 C-18.18299988 22.32939979 -19.78424676 24.06121592 -22 26 C-22.66 26 -23.32 26 -24 26 C-24.2475 26.5775 -24.495 27.155 -24.75 27.75 C-26.18299988 30.32939979 -27.78424676 32.06121592 -30 34 C-30.66 34 -31.32 34 -32 34 C-32.2475 34.61875 -32.495 35.2375 -32.75 35.875 C-34.20628639 38.35068687 -35.37812506 38.95125002 -38 40 C-36.92151387 36.76454161 -36.31920277 36.2149361 -33.75 34.1875 C-31.34191195 32.2052324 -29.52188528 30.42626234 -27.5 28 C-25.07918825 25.0950259 -22.58218698 22.89560302 -19.6875 20.5 C-17.75444683 18.85667758 -17.75444683 18.85667758 -15.5 16 C-13.55318179 13.66381815 -11.86955291 11.96569245 -9.5625 10.0625 C-5.9271419 7.05695174 -2.95772371 3.66194364 0 0 Z " fill="#D7D7D6" transform="translate(633,888)"/>
<path d="M0 0 C0.495 0.99 0.495 0.99 1 2 C-0.11799986 3.33920838 -1.24461897 4.67122556 -2.375 6 C-3.00148438 6.7425 -3.62796875 7.485 -4.2734375 8.25 C-4.84320312 8.8275 -5.41296875 9.405 -6 10 C-6.66 10 -7.32 10 -8 10 C-8.2475 10.5775 -8.495 11.155 -8.75 11.75 C-10.18299988 14.32939979 -11.78424676 16.06121592 -14 18 C-14.66 18 -15.32 18 -16 18 C-16.2475 18.5775 -16.495 19.155 -16.75 19.75 C-18.18299988 22.32939979 -19.78424676 24.06121592 -22 26 C-22.66 26 -23.32 26 -24 26 C-24.2475 26.5775 -24.495 27.155 -24.75 27.75 C-26.18299988 30.32939979 -27.78424676 32.06121592 -30 34 C-30.66 34 -31.32 34 -32 34 C-32.2475 34.61875 -32.495 35.2375 -32.75 35.875 C-34.20628639 38.35068687 -35.37812506 38.95125002 -38 40 C-36.92151387 36.76454161 -36.31920277 36.2149361 -33.75 34.1875 C-31.34191195 32.2052324 -29.52188528 30.42626234 -27.5 28 C-25.07918825 25.0950259 -22.58218698 22.89560302 -19.6875 20.5 C-17.75444683 18.85667758 -17.75444683 18.85667758 -15.5 16 C-13.55318179 13.66381815 -11.86955291 11.96569245 -9.5625 10.0625 C-5.9271419 7.05695174 -2.95772371 3.66194364 0 0 Z " fill="#D7D7D6" transform="translate(793,728)"/>
<path d="M0 0 C0.495 0.99 0.495 0.99 1 2 C-0.11799986 3.33920838 -1.24461897 4.67122556 -2.375 6 C-3.00148438 6.7425 -3.62796875 7.485 -4.2734375 8.25 C-4.84320312 8.8275 -5.41296875 9.405 -6 10 C-6.66 10 -7.32 10 -8 10 C-8.2475 10.5775 -8.495 11.155 -8.75 11.75 C-10.18299988 14.32939979 -11.78424676 16.06121592 -14 18 C-14.66 18 -15.32 18 -16 18 C-16.2475 18.5775 -16.495 19.155 -16.75 19.75 C-18.18299988 22.32939979 -19.78424676 24.06121592 -22 26 C-22.66 26 -23.32 26 -24 26 C-24.2475 26.5775 -24.495 27.155 -24.75 27.75 C-26.18299988 30.32939979 -27.78424676 32.06121592 -30 34 C-30.66 34 -31.32 34 -32 34 C-32.2475 34.61875 -32.495 35.2375 -32.75 35.875 C-34.20628639 38.35068687 -35.37812506 38.95125002 -38 40 C-36.92151387 36.76454161 -36.31920277 36.2149361 -33.75 34.1875 C-31.34191195 32.2052324 -29.52188528 30.42626234 -27.5 28 C-25.07918825 25.0950259 -22.58218698 22.89560302 -19.6875 20.5 C-17.75444683 18.85667758 -17.75444683 18.85667758 -15.5 16 C-13.55318179 13.66381815 -11.86955291 11.96569245 -9.5625 10.0625 C-5.9271419 7.05695174 -2.95772371 3.66194364 0 0 Z " fill="#D7D7D6" transform="translate(953,568)"/>
<path d="M0 0 C0.495 0.99 0.495 0.99 1 2 C-0.11799986 3.33920838 -1.24461897 4.67122556 -2.375 6 C-3.00148438 6.7425 -3.62796875 7.485 -4.2734375 8.25 C-4.84320312 8.8275 -5.41296875 9.405 -6 10 C-6.66 10 -7.32 10 -8 10 C-8.2475 10.5775 -8.495 11.155 -8.75 11.75 C-10.18299988 14.32939979 -11.78424676 16.06121592 -14 18 C-14.66 18 -15.32 18 -16 18 C-16.2475 18.5775 -16.495 19.155 -16.75 19.75 C-18.18299988 22.32939979 -19.78424676 24.06121592 -22 26 C-22.66 26 -23.32 26 -24 26 C-24.2475 26.5775 -24.495 27.155 -24.75 27.75 C-26.18299988 30.32939979 -27.78424676 32.06121592 -30 34 C-30.66 34 -31.32 34 -32 34 C-32.2475 34.61875 -32.495 35.2375 -32.75 35.875 C-34.20628639 38.35068687 -35.37812506 38.95125002 -38 40 C-36.92151387 36.76454161 -36.31920277 36.2149361 -33.75 34.1875 C-31.34191195 32.2052324 -29.52188528 30.42626234 -27.5 28 C-25.07918825 25.0950259 -22.58218698 22.89560302 -19.6875 20.5 C-17.75444683 18.85667758 -17.75444683 18.85667758 -15.5 16 C-13.55318179 13.66381815 -11.86955291 11.96569245 -9.5625 10.0625 C-5.9271419 7.05695174 -2.95772371 3.66194364 0 0 Z " fill="#D7D7D6" transform="translate(1113,408)"/>
<path d="M0 0 C0.99 0.33 1.98 0.66 3 1 C1.33333333 2.66666667 -0.33333333 4.33333333 -2 6 C-2.886875 6.928125 -3.77375 7.85625 -4.6875 8.8125 C-7 11 -7 11 -9 11 C-9.2475 11.57234375 -9.495 12.1446875 -9.75 12.734375 C-11.19316199 15.35010611 -12.88216222 17.14773456 -15 19.25 C-15.70125 19.95640625 -16.4025 20.6628125 -17.125 21.390625 C-19 23 -19 23 -21 23 C-21.3403125 23.928125 -21.3403125 23.928125 -21.6875 24.875 C-23.37929835 27.61410209 -24.99244161 28.05024472 -28 29 C-27.0919838 27.86800647 -26.17316174 26.74467637 -25.25 25.625 C-24.48429688 24.68527344 -24.48429688 24.68527344 -23.703125 23.7265625 C-22 22 -22 22 -19.859375 20.9609375 C-17.64209631 20.08895682 -17.64209631 20.08895682 -17 17 C-15.55149323 15.78193749 -14.0991836 14.56771281 -12.6171875 13.390625 C-10.06278882 11.19408894 -8.11697108 8.61835896 -6 6 C-3.8125 3.625 -3.8125 3.625 -2 2 C-1.34 2 -0.68 2 0 2 C0 1.34 0 0.68 0 0 Z " fill="#CECECD" transform="translate(746,519)"/>
<path d="M0 0 C0.33 0.66 0.66 1.32 1 2 C-0.11799986 3.33920838 -1.24461897 4.67122556 -2.375 6 C-3.31472656 7.11375 -3.31472656 7.11375 -4.2734375 8.25 C-4.84320313 8.8275 -5.41296875 9.405 -6 10 C-6.66 10 -7.32 10 -8 10 C-8.2475 10.5775 -8.495 11.155 -8.75 11.75 C-10.18299988 14.32939979 -11.78424676 16.06121592 -14 18 C-14.66 18 -15.32 18 -16 18 C-16.2475 18.5775 -16.495 19.155 -16.75 19.75 C-18.18299988 22.32939979 -19.78424676 24.06121592 -22 26 C-22.66 26 -23.32 26 -24 26 C-24.2475 26.61875 -24.495 27.2375 -24.75 27.875 C-26.20628639 30.35068687 -27.37812506 30.95125002 -30 32 C-28.92151387 28.76454161 -28.31920277 28.2149361 -25.75 26.1875 C-23.34191195 24.2052324 -21.52188528 22.42626234 -19.5 20 C-17.53990433 17.6478852 -15.82295852 15.92244843 -13.5 14 C-10.20128588 11.26535172 -7.69249702 8.33019369 -5 5 C-3.37068425 3.28989173 -1.69470867 1.64628842 0 0 Z " fill="#D6D6D6" transform="translate(473,1048)"/>
<path d="M0 0 C0.33 0.99 0.66 1.98 1 3 C0 5 0 5 -2.4375 6.4375 C-5.33981993 8.20720728 -6.49466809 9.98933619 -8 13 C-9.05341985 13.99112083 -10.14202577 14.9452651 -11.25 15.875 C-11.87519531 16.4009375 -12.50039063 16.926875 -13.14453125 17.46875 C-15.40973892 19.33814243 -17.6930331 21.18238971 -20 23 C-20.66 22.67 -21.32 22.34 -22 22 C-14.74 14.74 -7.48 7.48 0 0 Z " fill="#D5D5D4" transform="translate(705,560)"/>
<path d="M0 0 C0.33 0.99 0.66 1.98 1 3 C0.21625 3.5775 -0.5675 4.155 -1.375 4.75 C-4.02526413 6.72714742 -4.02526413 6.72714742 -5 9 C-6.41376464 11.82752928 -8.44107802 13.20875461 -11 15 C-11.66 15 -12.32 15 -13 15 C-13.2475 15.598125 -13.495 16.19625 -13.75 16.8125 C-15.16370012 19.28647521 -16.65055383 20.43370255 -19 22 C-19.66 21.67 -20.32 21.34 -21 21 C-14.07 14.07 -7.14 7.14 0 0 Z " fill="#CFCFCE" transform="translate(596,668)"/>
<path d="M0 0 C0 3 0 3 -1.6796875 5.04296875 C-2.76636719 6.10451172 -2.76636719 6.10451172 -3.875 7.1875 C-4.59429687 7.90292969 -5.31359375 8.61835937 -6.0546875 9.35546875 C-8 11 -8 11 -10 11 C-10.2475 11.5775 -10.495 12.155 -10.75 12.75 C-12.18299988 15.32939979 -13.78424676 17.06121592 -16 19 C-16.66 19 -17.32 19 -18 19 C-18.2475 19.61875 -18.495 20.2375 -18.75 20.875 C-20.20628639 23.35068687 -21.37812506 23.95125002 -24 25 C-22.67527046 21.42323025 -20.51577135 19.67414187 -17.5703125 17.34765625 C-15.73746146 15.85109064 -15.73746146 15.85109064 -13.5625 13.0625 C-11.10375767 10.12400307 -8.58089016 7.82366433 -5.6484375 5.390625 C-3.64844929 3.70343115 -1.81283511 1.88534852 0 0 Z " fill="#D8D8D8" transform="translate(499,1023)"/>
<path d="M0 0 C0 3 0 3 -1.6796875 5.04296875 C-2.76636719 6.10451172 -2.76636719 6.10451172 -3.875 7.1875 C-4.59429688 7.90292969 -5.31359375 8.61835937 -6.0546875 9.35546875 C-8 11 -8 11 -10 11 C-10.2475 11.5775 -10.495 12.155 -10.75 12.75 C-12.18299988 15.32939979 -13.78424676 17.06121592 -16 19 C-16.66 19 -17.32 19 -18 19 C-18.2475 19.61875 -18.495 20.2375 -18.75 20.875 C-20.20628639 23.35068687 -21.37812506 23.95125002 -24 25 C-22.67527046 21.42323025 -20.51577135 19.67414187 -17.5703125 17.34765625 C-15.73746146 15.85109064 -15.73746146 15.85109064 -13.5625 13.0625 C-11.10375767 10.12400307 -8.58089016 7.82366433 -5.6484375 5.390625 C-3.64844929 3.70343115 -1.81283511 1.88534852 0 0 Z " fill="#D8D8D8" transform="translate(659,863)"/>
<path d="M0 0 C0 3 0 3 -1.6796875 5.04296875 C-2.76636719 6.10451172 -2.76636719 6.10451172 -3.875 7.1875 C-4.59429688 7.90292969 -5.31359375 8.61835937 -6.0546875 9.35546875 C-8 11 -8 11 -10 11 C-10.2475 11.5775 -10.495 12.155 -10.75 12.75 C-12.18299988 15.32939979 -13.78424676 17.06121592 -16 19 C-16.66 19 -17.32 19 -18 19 C-18.2475 19.61875 -18.495 20.2375 -18.75 20.875 C-20.20628639 23.35068687 -21.37812506 23.95125002 -24 25 C-22.67527046 21.42323025 -20.51577135 19.67414187 -17.5703125 17.34765625 C-15.73746146 15.85109064 -15.73746146 15.85109064 -13.5625 13.0625 C-11.10375767 10.12400307 -8.58089016 7.82366433 -5.6484375 5.390625 C-3.64844929 3.70343115 -1.81283511 1.88534852 0 0 Z " fill="#D8D8D8" transform="translate(819,703)"/>
<path d="M0 0 C0 3 0 3 -1.6796875 5.04296875 C-2.76636719 6.10451172 -2.76636719 6.10451172 -3.875 7.1875 C-4.59429688 7.90292969 -5.31359375 8.61835937 -6.0546875 9.35546875 C-8 11 -8 11 -10 11 C-10.2475 11.5775 -10.495 12.155 -10.75 12.75 C-12.18299988 15.32939979 -13.78424676 17.06121592 -16 19 C-16.66 19 -17.32 19 -18 19 C-18.2475 19.61875 -18.495 20.2375 -18.75 20.875 C-20.20628639 23.35068687 -21.37812506 23.95125002 -24 25 C-22.67527046 21.42323025 -20.51577135 19.67414187 -17.5703125 17.34765625 C-15.73746146 15.85109064 -15.73746146 15.85109064 -13.5625 13.0625 C-11.10375767 10.12400307 -8.58089016 7.82366433 -5.6484375 5.390625 C-3.64844929 3.70343115 -1.81283511 1.88534852 0 0 Z " fill="#D8D8D8" transform="translate(979,543)"/>
<path d="M0 0 C0 3 0 3 -1.6796875 5.04296875 C-2.76636719 6.10451172 -2.76636719 6.10451172 -3.875 7.1875 C-4.59429688 7.90292969 -5.31359375 8.61835938 -6.0546875 9.35546875 C-8 11 -8 11 -10 11 C-10.2475 11.5775 -10.495 12.155 -10.75 12.75 C-12.18299988 15.32939979 -13.78424676 17.06121592 -16 19 C-16.66 19 -17.32 19 -18 19 C-18.2475 19.61875 -18.495 20.2375 -18.75 20.875 C-20.20628639 23.35068687 -21.37812506 23.95125002 -24 25 C-22.67527046 21.42323025 -20.51577135 19.67414187 -17.5703125 17.34765625 C-15.73746146 15.85109064 -15.73746146 15.85109064 -13.5625 13.0625 C-11.10375767 10.12400307 -8.58089016 7.82366433 -5.6484375 5.390625 C-3.64844929 3.70343115 -1.81283511 1.88534852 0 0 Z " fill="#D8D8D8" transform="translate(1139,383)"/>
<path d="M0 0 C0 3 0 3 -1.6796875 5.04296875 C-2.76636719 6.10451172 -2.76636719 6.10451172 -3.875 7.1875 C-4.59429688 7.90292969 -5.31359375 8.61835938 -6.0546875 9.35546875 C-8 11 -8 11 -10 11 C-10.2475 11.5775 -10.495 12.155 -10.75 12.75 C-12.18299988 15.32939979 -13.78424676 17.06121592 -16 19 C-16.66 19 -17.32 19 -18 19 C-18.2475 19.61875 -18.495 20.2375 -18.75 20.875 C-20.20628639 23.35068687 -21.37812506 23.95125002 -24 25 C-22.67527046 21.42323025 -20.51577135 19.67414187 -17.5703125 17.34765625 C-15.73746146 15.85109064 -15.73746146 15.85109064 -13.5625 13.0625 C-11.10375767 10.12400307 -8.58089016 7.82366433 -5.6484375 5.390625 C-3.64844929 3.70343115 -1.81283511 1.88534852 0 0 Z " fill="#D8D8D8" transform="translate(1299,223)"/>
<path d="M0 0 C0 3 0 3 -1.6796875 5.04296875 C-2.76636719 6.10451172 -2.76636719 6.10451172 -3.875 7.1875 C-4.59429688 7.90292969 -5.31359375 8.61835937 -6.0546875 9.35546875 C-8 11 -8 11 -10 11 C-10.2475 11.5775 -10.495 12.155 -10.75 12.75 C-12.18299988 15.32939979 -13.78424676 17.06121592 -16 19 C-16.66 19 -17.32 19 -18 19 C-18.2475 19.61875 -18.495 20.2375 -18.75 20.875 C-20.20628639 23.35068687 -21.37812506 23.95125002 -24 25 C-22.67527046 21.42323025 -20.51577135 19.67414187 -17.5703125 17.34765625 C-15.73746146 15.85109064 -15.73746146 15.85109064 -13.5625 13.0625 C-11.10375767 10.12400307 -8.58089016 7.82366433 -5.6484375 5.390625 C-3.64844929 3.70343115 -1.81283511 1.88534852 0 0 Z " fill="#D8D8D8" transform="translate(1459,63)"/>
<path d="M0 0 C0 3 0 3 -1.2421875 4.39453125 C-2.05042969 5.09642578 -2.05042969 5.09642578 -2.875 5.8125 C-5.83602175 8.59893321 -7.04461089 10.98736573 -8 15 C-8.33 14.34 -8.66 13.68 -9 13 C-10.32 13.99 -11.64 14.98 -13 16 C-13.66 15.67 -14.32 15.34 -15 15 C-10.05 10.05 -5.1 5.1 0 0 Z " fill="#DFDFDD" transform="translate(901,471)"/>
<path d="M0 0 C0 3 0 3 -1.2421875 4.39453125 C-2.05042969 5.09642578 -2.05042969 5.09642578 -2.875 5.8125 C-5.83602175 8.59893321 -7.04461089 10.98736573 -8 15 C-8.33 14.34 -8.66 13.68 -9 13 C-10.32 13.99 -11.64 14.98 -13 16 C-13.66 15.67 -14.32 15.34 -15 15 C-10.05 10.05 -5.1 5.1 0 0 Z " fill="#DFDFDD" transform="translate(1061,311)"/>
<path d="M0 0 C0 3 0 3 -1.2421875 4.39453125 C-2.05042969 5.09642578 -2.05042969 5.09642578 -2.875 5.8125 C-5.83602175 8.59893321 -7.04461089 10.98736573 -8 15 C-8.33 14.34 -8.66 13.68 -9 13 C-10.32 13.99 -11.64 14.98 -13 16 C-13.66 15.67 -14.32 15.34 -15 15 C-10.05 10.05 -5.1 5.1 0 0 Z " fill="#DFDFDD" transform="translate(1221,151)"/>
<path d="M0 0 C0 3 0 3 -1.19335938 4.53393555 C-1.73798828 5.062854 -2.28261719 5.59177246 -2.84375 6.13671875 C-3.72353516 7.00200195 -3.72353516 7.00200195 -4.62109375 7.88476562 C-5.24113281 8.47966797 -5.86117187 9.07457031 -6.5 9.6875 C-7.12003906 10.29400391 -7.74007812 10.90050781 -8.37890625 11.52539062 C-9.91264707 13.02373743 -11.45548198 14.51276493 -13 16 C-13.99 15.67 -14.98 15.34 -16 15 C-15.32626343 14.37170288 -15.32626343 14.37170288 -14.63891602 13.73071289 C-12.61327169 11.84149326 -10.58788262 9.9520002 -8.5625 8.0625 C-7.85544922 7.40314453 -7.14839844 6.74378906 -6.41992188 6.06445312 C-5.74638672 5.43603516 -5.07285156 4.80761719 -4.37890625 4.16015625 C-3.7557251 3.57886963 -3.13254395 2.99758301 -2.49047852 2.39868164 C-1.65000401 1.609971 -0.81500364 0.81500364 0 0 Z " fill="#D4D4D3" transform="translate(623,642)"/>
<path d="M0 0 C0 4.17691418 -2.22986516 6.13681153 -5 9 C-6.94771005 10.75157063 -8.94324501 12.37372861 -11 14 C-11.66 13.67 -12.32 13.34 -13 13 C-8.71 8.71 -4.42 4.42 0 0 Z " fill="#D5D5D4" transform="translate(679,586)"/>
<path d="M0 0 C0.33 0.99 0.66 1.98 1 3 C-0.2578125 5.0078125 -0.2578125 5.0078125 -2.125 7.125 C-2.72570312 7.82882812 -3.32640625 8.53265625 -3.9453125 9.2578125 C-6.31139318 11.264033 -7.95461799 11.65225742 -11 12 C-7.49102731 7.81576108 -3.91939465 3.80411834 0 0 Z " fill="#C8C8C7" transform="translate(717,548)"/>
<path d="M0 0 C0.33 0.66 0.66 1.32 1 2 C-1.9752075 6.00508702 -4.97398207 9.0875615 -9 12 C-9.99 11.67 -10.98 11.34 -12 11 C-8.04 7.37 -4.08 3.74 0 0 Z " fill="#D1D1CF" transform="translate(1570,906)"/>
<path d="M0 0 C0.33 0.99 0.66 1.98 1 3 C-3.455 6.96 -3.455 6.96 -8 11 C-8.66 10.67 -9.32 10.34 -10 10 C-6.7 6.7 -3.4 3.4 0 0 Z " fill="#D0D0CF" transform="translate(563,701)"/>
<path d="M0 0 C1 3 1 3 1 5 C0.01 5 -0.98 5 -2 5 C-4.68767578 7.43750025 -4.68767578 7.43750025 -7 10 C-7.66 9.67 -8.32 9.34 -9 9 C-6.03 6.03 -3.06 3.06 0 0 Z " fill="#D3D3D2" transform="translate(552,712)"/>
<path d="M0 0 C0 0.99 0 1.98 0 3 C-0.7115625 3.6496875 -0.7115625 3.6496875 -1.4375 4.3125 C-3.62100982 6.6706906 -3.65266951 8.87402561 -4 12 C-4.99 11.34 -5.98 10.68 -7 10 C-6.42424336 6.64749299 -5.40693737 5.06181371 -2.9375 2.75 C-2.38964844 2.22921875 -1.84179688 1.7084375 -1.27734375 1.171875 C-0.64505859 0.59179688 -0.64505859 0.59179688 0 0 Z " fill="#5A5A58" transform="translate(1121,449)"/>
<path d="M0 0 C0 4.35251187 -2.06165511 5.92809398 -5 9 C-7.3125 9.875 -7.3125 9.875 -9 10 C-8.67 9.34 -8.34 8.68 -8 8 C-7.34 8 -6.68 8 -6 8 C-5.7525 7.4225 -5.505 6.845 -5.25 6.25 C-3.83316683 3.6997003 -2.12372463 1.98214299 0 0 Z " fill="#BDBDBC" transform="translate(606,658)"/>
<path d="M0 0 C0.33 0.99 0.66 1.98 1 3 C-0.88020043 6.76040087 -5.34726109 8.19310144 -9 10 C-8.06409496 8.8944811 -7.12620142 7.79064547 -6.1875 6.6875 C-5.66542969 6.07261719 -5.14335938 5.45773437 -4.60546875 4.82421875 C-3.12827531 3.14575321 -1.59960869 1.56117966 0 0 Z " fill="#CBCBCA" transform="translate(705,560)"/>
<path d="M0 0 C-1.24176695 0.70226141 -2.49385599 1.38629109 -3.75 2.0625 C-4.79414063 2.63677734 -4.79414063 2.63677734 -5.859375 3.22265625 C-8.36140628 4.1312406 -9.5332355 3.88336837 -12 3 C-10.75823305 2.29773859 -9.50614401 1.61370891 -8.25 0.9375 C-7.20585937 0.36322266 -7.20585937 0.36322266 -6.140625 -0.22265625 C-3.63859372 -1.1312406 -2.4667645 -0.88336837 0 0 Z " fill="#767674" transform="translate(383,96)"/>
<path d="M0 0 C0 3 0 3 -2.5 5.6875 C-3.325 6.450625 -4.15 7.21375 -5 8 C-5.99 7.67 -6.98 7.34 -8 7 C-5.36 4.69 -2.72 2.38 0 0 Z " fill="#CCCCCC" transform="translate(473,791)"/>
<path d="M0 0 C0 3.58912412 -0.66436554 4.10857029 -3 6.6875 C-3.556875 7.31011719 -4.11375 7.93273437 -4.6875 8.57421875 C-5.120625 9.04472656 -5.55375 9.51523437 -6 10 C-6.99 9.67 -7.98 9.34 -9 9 C-6.03 6.03 -3.06 3.06 0 0 Z " fill="#D7D7D6" transform="translate(525,739)"/>
<path d="M0 0 C0.33 0.66 0.66 1.32 1 2 C-0.65 3.98 -2.3 5.96 -4 8 C-4.99 7.67 -5.98 7.34 -7 7 C-4.69 4.69 -2.38 2.38 0 0 Z " fill="#5B5B5B" transform="translate(465,955)"/>
<path d="M0 0 C0.33 0.99 0.66 1.98 1 3 C-1.97 5.475 -1.97 5.475 -5 8 C-5.66 7.67 -6.32 7.34 -7 7 C-4.69 4.69 -2.38 2.38 0 0 Z " fill="#5B5B5A" transform="translate(481,939)"/>
<path d="M0 0 C2.4375 0.75 2.4375 0.75 5 2 C5.8125 4.125 5.8125 4.125 6 6 C5.01 6.33 4.02 6.66 3 7 C2.01 4.69 1.02 2.38 0 0 Z " fill="#484846" transform="translate(337,887)"/>
<path d="M0 0 C0 3 0 3 -1 5 C1.31 5 3.62 5 6 5 C6 5.33 6 5.66 6 6 C2.7 6 -0.6 6 -4 6 C-2 2 -2 2 0 0 Z " fill="#CFCFCE" transform="translate(450,813)"/>
<path d="M0 0 C0.33 0.66 0.66 1.32 1 2 C-0.65 3.98 -2.3 5.96 -4 8 C-4.99 7.67 -5.98 7.34 -7 7 C-4.69 4.69 -2.38 2.38 0 0 Z " fill="#5B5B5B" transform="translate(625,795)"/>
<path d="M0 0 C0.33 0.99 0.66 1.98 1 3 C-1.97 5.475 -1.97 5.475 -5 8 C-5.66 7.67 -6.32 7.34 -7 7 C-4.69 4.69 -2.38 2.38 0 0 Z " fill="#5B5B5A" transform="translate(641,779)"/>
<path d="M0 0 C0.33 0.99 0.66 1.98 1 3 C-0.39789678 5.79579355 -2.2628997 6.59807058 -5 8 C-5.66 7.67 -6.32 7.34 -7 7 C-4.69 4.69 -2.38 2.38 0 0 Z " fill="#D7D7D6" transform="translate(536,728)"/>
<path d="M0 0 C0.33 0.99 0.66 1.98 1 3 C-1.31 4.98 -3.62 6.96 -6 9 C-6.66 8.67 -7.32 8.34 -8 8 C-5.36 5.36 -2.72 2.72 0 0 Z " fill="#BBBBBA" transform="translate(596,668)"/>
<path d="M0 0 C0.33 0.66 0.66 1.32 1 2 C-0.65 3.98 -2.3 5.96 -4 8 C-4.99 7.67 -5.98 7.34 -7 7 C-4.69 4.69 -2.38 2.38 0 0 Z " fill="#5B5B5B" transform="translate(785,635)"/>
<path d="M0 0 C0.33 0.99 0.66 1.98 1 3 C-1.97 5.475 -1.97 5.475 -5 8 C-5.66 7.67 -6.32 7.34 -7 7 C-4.69 4.69 -2.38 2.38 0 0 Z " fill="#5B5B5A" transform="translate(801,619)"/>
<path d="M0 0 C0.33 0.66 0.66 1.32 1 2 C-0.65 3.98 -2.3 5.96 -4 8 C-4.99 7.67 -5.98 7.34 -7 7 C-4.69 4.69 -2.38 2.38 0 0 Z " fill="#5B5B5B" transform="translate(945,475)"/>
<path d="M0 0 C0.33 0.99 0.66 1.98 1 3 C-1.97 5.475 -1.97 5.475 -5 8 C-5.66 7.67 -6.32 7.34 -7 7 C-4.69 4.69 -2.38 2.38 0 0 Z " fill="#5B5B5A" transform="translate(961,459)"/>
<path d="M0 0 C0.33 0.66 0.66 1.32 1 2 C-0.65 3.98 -2.3 5.96 -4 8 C-4.99 7.67 -5.98 7.34 -7 7 C-4.69 4.69 -2.38 2.38 0 0 Z " fill="#5B5B5B" transform="translate(1105,315)"/>
<path d="M0 0 C0.33 0.99 0.66 1.98 1 3 C-1.97 5.475 -1.97 5.475 -5 8 C-5.66 7.67 -6.32 7.34 -7 7 C-4.69 4.69 -2.38 2.38 0 0 Z " fill="#5B5B5A" transform="translate(1121,299)"/>
<path d="M0 0 C0.33 0.66 0.66 1.32 1 2 C-0.65 3.98 -2.3 5.96 -4 8 C-4.99 7.67 -5.98 7.34 -7 7 C-4.69 4.69 -2.38 2.38 0 0 Z " fill="#5B5B5B" transform="translate(1265,155)"/>
<path d="M0 0 C0.33 0.99 0.66 1.98 1 3 C-1.97 5.475 -1.97 5.475 -5 8 C-5.66 7.67 -6.32 7.34 -7 7 C-4.69 4.69 -2.38 2.38 0 0 Z " fill="#5B5B5A" transform="translate(1281,139)"/>
<path d="M0 0 C0.33 0.66 0.66 1.32 1 2 C-1.47812494 5.45167403 -2.79606135 7.23163306 -7 8 C-6.02133662 6.85373678 -5.04205413 5.70800212 -4.0625 4.5625 C-3.51722656 3.92441406 -2.97195313 3.28632812 -2.41015625 2.62890625 C-1.63204305 1.73008851 -0.84063472 0.84063472 0 0 Z " fill="#5D5D5D" transform="translate(361,1059)"/>
<path d="M0 0 C0.33 0.66 0.66 1.32 1 2 C-1.47812494 5.45167403 -2.79606135 7.23163306 -7 8 C-6.02133662 6.85373678 -5.04205413 5.70800212 -4.0625 4.5625 C-3.51722656 3.92441406 -2.97195313 3.28632812 -2.41015625 2.62890625 C-1.63204305 1.73008851 -0.84063472 0.84063472 0 0 Z " fill="#5D5D5C" transform="translate(369,1051)"/>
<path d="M0 0 C0.33 0.66 0.66 1.32 1 2 C-1.47812494 5.45167403 -2.79606135 7.23163306 -7 8 C-6.02133662 6.85373678 -5.04205413 5.70800212 -4.0625 4.5625 C-3.51722656 3.92441406 -2.97195313 3.28632812 -2.41015625 2.62890625 C-1.63204305 1.73008851 -0.84063472 0.84063472 0 0 Z " fill="#5D5D5C" transform="translate(409,1011)"/>
<path d="M0 0 C0.33 0.66 0.66 1.32 1 2 C-1.47812494 5.45167403 -2.79606135 7.23163306 -7 8 C-6.02133662 6.85373678 -5.04205413 5.70800212 -4.0625 4.5625 C-3.51722656 3.92441406 -2.97195313 3.28632812 -2.41015625 2.62890625 C-1.63204305 1.73008851 -0.84063472 0.84063472 0 0 Z " fill="#5D5D5C" transform="translate(425,995)"/>
<path d="M0 0 C0.33 0.66 0.66 1.32 1 2 C-1.47812494 5.45167403 -2.79606135 7.23163306 -7 8 C-6.02133662 6.85373678 -5.04205413 5.70800212 -4.0625 4.5625 C-3.51722656 3.92441406 -2.97195313 3.28632812 -2.41015625 2.62890625 C-1.63204305 1.73008851 -0.84063472 0.84063472 0 0 Z " fill="#5D5D5C" transform="translate(441,979)"/>
<path d="M0 0 C0.33 0.66 0.66 1.32 1 2 C-1.47812494 5.45167403 -2.79606135 7.23163306 -7 8 C-6.02133662 6.85373678 -5.04205413 5.70800212 -4.0625 4.5625 C-3.51722656 3.92441406 -2.97195313 3.28632812 -2.41015625 2.62890625 C-1.63204305 1.73008851 -0.84063472 0.84063472 0 0 Z " fill="#5D5D5D" transform="translate(521,899)"/>
<path d="M0 0 C0.33 0.66 0.66 1.32 1 2 C-1.47812494 5.45167403 -2.79606135 7.23163306 -7 8 C-6.02133662 6.85373678 -5.04205413 5.70800212 -4.0625 4.5625 C-3.51722656 3.92441406 -2.97195313 3.28632812 -2.41015625 2.62890625 C-1.63204305 1.73008851 -0.84063472 0.84063472 0 0 Z " fill="#5D5D5C" transform="translate(529,891)"/>
<path d="M0 0 C0.33 0.66 0.66 1.32 1 2 C-1.47812494 5.45167403 -2.79606135 7.23163306 -7 8 C-6.02133662 6.85373678 -5.04205413 5.70800212 -4.0625 4.5625 C-3.51722656 3.92441406 -2.97195313 3.28632812 -2.41015625 2.62890625 C-1.63204305 1.73008851 -0.84063472 0.84063472 0 0 Z " fill="#5D5D5C" transform="translate(569,851)"/>
<path d="M0 0 C0.33 0.66 0.66 1.32 1 2 C-1.47812494 5.45167403 -2.79606135 7.23163306 -7 8 C-6.02133662 6.85373678 -5.04205413 5.70800212 -4.0625 4.5625 C-3.51722656 3.92441406 -2.97195313 3.28632812 -2.41015625 2.62890625 C-1.63204305 1.73008851 -0.84063472 0.84063472 0 0 Z " fill="#5D5D5C" transform="translate(585,835)"/>
<path d="M0 0 C0.33 0.66 0.66 1.32 1 2 C-1.47812494 5.45167403 -2.79606135 7.23163306 -7 8 C-6.02133662 6.85373678 -5.04205413 5.70800212 -4.0625 4.5625 C-3.51722656 3.92441406 -2.97195313 3.28632812 -2.41015625 2.62890625 C-1.63204305 1.73008851 -0.84063472 0.84063472 0 0 Z " fill="#5D5D5C" transform="translate(601,819)"/>
<path d="M0 0 C0.33 0.66 0.66 1.32 1 2 C-1.47812494 5.45167403 -2.79606135 7.23163306 -7 8 C-6.02133662 6.85373678 -5.04205413 5.70800212 -4.0625 4.5625 C-3.51722656 3.92441406 -2.97195313 3.28632812 -2.41015625 2.62890625 C-1.63204305 1.73008851 -0.84063472 0.84063472 0 0 Z " fill="#5D5D5D" transform="translate(681,739)"/>
<path d="M0 0 C0.33 0.66 0.66 1.32 1 2 C-1.47812494 5.45167403 -2.79606135 7.23163306 -7 8 C-6.02133662 6.85373678 -5.04205413 5.70800212 -4.0625 4.5625 C-3.51722656 3.92441406 -2.97195313 3.28632812 -2.41015625 2.62890625 C-1.63204305 1.73008851 -0.84063472 0.84063472 0 0 Z " fill="#5D5D5C" transform="translate(689,731)"/>
<path d="M0 0 C0.33 0.66 0.66 1.32 1 2 C-1.47812494 5.45167403 -2.79606135 7.23163306 -7 8 C-6.02133662 6.85373678 -5.04205413 5.70800212 -4.0625 4.5625 C-3.51722656 3.92441406 -2.97195313 3.28632812 -2.41015625 2.62890625 C-1.63204305 1.73008851 -0.84063472 0.84063472 0 0 Z " fill="#5D5D5C" transform="translate(729,691)"/>
<path d="M0 0 C0.33 0.66 0.66 1.32 1 2 C-1.47812494 5.45167403 -2.79606135 7.23163306 -7 8 C-6.02133662 6.85373678 -5.04205413 5.70800212 -4.0625 4.5625 C-3.51722656 3.92441406 -2.97195313 3.28632812 -2.41015625 2.62890625 C-1.63204305 1.73008851 -0.84063472 0.84063472 0 0 Z " fill="#5D5D5C" transform="translate(745,675)"/>
<path d="M0 0 C0.33 0.66 0.66 1.32 1 2 C-1.47812494 5.45167403 -2.79606135 7.23163306 -7 8 C-6.02133662 6.85373678 -5.04205413 5.70800212 -4.0625 4.5625 C-3.51722656 3.92441406 -2.97195313 3.28632812 -2.41015625 2.62890625 C-1.63204305 1.73008851 -0.84063472 0.84063472 0 0 Z " fill="#5D5D5C" transform="translate(761,659)"/>
<path d="M0 0 C0.33 0.66 0.66 1.32 1 2 C-1.47812494 5.45167403 -2.79606135 7.23163306 -7 8 C-6.02133662 6.85373678 -5.04205413 5.70800212 -4.0625 4.5625 C-3.51722656 3.92441406 -2.97195313 3.28632812 -2.41015625 2.62890625 C-1.63204305 1.73008851 -0.84063472 0.84063472 0 0 Z " fill="#5D5D5D" transform="translate(841,579)"/>
<path d="M0 0 C0.33 0.66 0.66 1.32 1 2 C-1.47812494 5.45167403 -2.79606135 7.23163306 -7 8 C-6.02133662 6.85373678 -5.04205413 5.70800212 -4.0625 4.5625 C-3.51722656 3.92441406 -2.97195313 3.28632812 -2.41015625 2.62890625 C-1.63204305 1.73008851 -0.84063472 0.84063472 0 0 Z " fill="#5D5D5C" transform="translate(849,571)"/>
<path d="M0 0 C0.33 0.66 0.66 1.32 1 2 C-1.47812494 5.45167403 -2.79606135 7.23163306 -7 8 C-6.02133662 6.85373678 -5.04205413 5.70800212 -4.0625 4.5625 C-3.51722656 3.92441406 -2.97195313 3.28632812 -2.41015625 2.62890625 C-1.63204305 1.73008851 -0.84063472 0.84063472 0 0 Z " fill="#5D5D5C" transform="translate(889,531)"/>
<path d="M0 0 C0.33 0.66 0.66 1.32 1 2 C-1.47812494 5.45167403 -2.79606135 7.23163306 -7 8 C-6.02133662 6.85373678 -5.04205413 5.70800212 -4.0625 4.5625 C-3.51722656 3.92441406 -2.97195313 3.28632812 -2.41015625 2.62890625 C-1.63204305 1.73008851 -0.84063472 0.84063472 0 0 Z " fill="#5D5D5C" transform="translate(905,515)"/>
<path d="M0 0 C0.33 0.66 0.66 1.32 1 2 C-1.47812494 5.45167403 -2.79606135 7.23163306 -7 8 C-6.02133662 6.85373678 -5.04205413 5.70800212 -4.0625 4.5625 C-3.51722656 3.92441406 -2.97195313 3.28632813 -2.41015625 2.62890625 C-1.63204305 1.73008851 -0.84063472 0.84063472 0 0 Z " fill="#5D5D5C" transform="translate(921,499)"/>
<path d="M0 0 C0.33 0.66 0.66 1.32 1 2 C-1.47812494 5.45167403 -2.79606135 7.23163306 -7 8 C-6.02133662 6.85373678 -5.04205413 5.70800212 -4.0625 4.5625 C-3.51722656 3.92441406 -2.97195313 3.28632813 -2.41015625 2.62890625 C-1.63204305 1.73008851 -0.84063472 0.84063472 0 0 Z " fill="#5D5D5D" transform="translate(1001,419)"/>
<path d="M0 0 C0.33 0.66 0.66 1.32 1 2 C-1.47812494 5.45167403 -2.79606135 7.23163306 -7 8 C-6.02133662 6.85373678 -5.04205413 5.70800212 -4.0625 4.5625 C-3.51722656 3.92441406 -2.97195313 3.28632813 -2.41015625 2.62890625 C-1.63204305 1.73008851 -0.84063472 0.84063472 0 0 Z " fill="#5D5D5C" transform="translate(1009,411)"/>
<path d="M0 0 C0.33 0.66 0.66 1.32 1 2 C-1.47812494 5.45167403 -2.79606135 7.23163306 -7 8 C-6.02133662 6.85373678 -5.04205413 5.70800212 -4.0625 4.5625 C-3.51722656 3.92441406 -2.97195313 3.28632813 -2.41015625 2.62890625 C-1.63204305 1.73008851 -0.84063472 0.84063472 0 0 Z " fill="#5D5D5C" transform="translate(1049,371)"/>
<path d="M0 0 C0.33 0.66 0.66 1.32 1 2 C-1.47812494 5.45167403 -2.79606135 7.23163306 -7 8 C-6.02133662 6.85373678 -5.04205413 5.70800212 -4.0625 4.5625 C-3.51722656 3.92441406 -2.97195313 3.28632813 -2.41015625 2.62890625 C-1.63204305 1.73008851 -0.84063472 0.84063472 0 0 Z " fill="#5D5D5C" transform="translate(1065,355)"/>
<path d="M0 0 C0.33 0.66 0.66 1.32 1 2 C-1.47812494 5.45167403 -2.79606135 7.23163306 -7 8 C-6.02133662 6.85373678 -5.04205413 5.70800212 -4.0625 4.5625 C-3.51722656 3.92441406 -2.97195313 3.28632813 -2.41015625 2.62890625 C-1.63204305 1.73008851 -0.84063472 0.84063472 0 0 Z " fill="#5D5D5C" transform="translate(1081,339)"/>
<path d="M0 0 C0.33 0.66 0.66 1.32 1 2 C-1.47812494 5.45167403 -2.79606135 7.23163306 -7 8 C-6.02133662 6.85373678 -5.04205413 5.70800212 -4.0625 4.5625 C-3.51722656 3.92441406 -2.97195313 3.28632813 -2.41015625 2.62890625 C-1.63204305 1.73008851 -0.84063472 0.84063472 0 0 Z " fill="#5D5D5D" transform="translate(1161,259)"/>
<path d="M0 0 C0.33 0.66 0.66 1.32 1 2 C-1.47812494 5.45167403 -2.79606135 7.23163306 -7 8 C-6.02133662 6.85373678 -5.04205413 5.70800212 -4.0625 4.5625 C-3.51722656 3.92441406 -2.97195313 3.28632813 -2.41015625 2.62890625 C-1.63204305 1.73008851 -0.84063472 0.84063472 0 0 Z " fill="#5D5D5C" transform="translate(1169,251)"/>
<path d="M0 0 C0.33 0.66 0.66 1.32 1 2 C-1.47812494 5.45167403 -2.79606135 7.23163306 -7 8 C-6.02133662 6.85373678 -5.04205413 5.70800212 -4.0625 4.5625 C-3.51722656 3.92441406 -2.97195313 3.28632813 -2.41015625 2.62890625 C-1.63204305 1.73008851 -0.84063472 0.84063472 0 0 Z " fill="#5D5D5C" transform="translate(1209,211)"/>
<path d="M0 0 C0.33 0.66 0.66 1.32 1 2 C-1.47812494 5.45167403 -2.79606135 7.23163306 -7 8 C-6.02133662 6.85373678 -5.04205413 5.70800212 -4.0625 4.5625 C-3.51722656 3.92441406 -2.97195313 3.28632813 -2.41015625 2.62890625 C-1.63204305 1.73008851 -0.84063472 0.84063472 0 0 Z " fill="#5D5D5C" transform="translate(1225,195)"/>
<path d="M0 0 C0.33 0.66 0.66 1.32 1 2 C-1.47812494 5.45167403 -2.79606135 7.23163306 -7 8 C-6.02133662 6.85373678 -5.04205413 5.70800212 -4.0625 4.5625 C-3.51722656 3.92441406 -2.97195313 3.28632813 -2.41015625 2.62890625 C-1.63204305 1.73008851 -0.84063472 0.84063472 0 0 Z " fill="#5D5D5C" transform="translate(1241,179)"/>
<path d="M0 0 C0.33 0.66 0.66 1.32 1 2 C-1.47812494 5.45167403 -2.79606135 7.23163306 -7 8 C-6.02133662 6.85373678 -5.04205413 5.70800212 -4.0625 4.5625 C-3.51722656 3.92441406 -2.97195313 3.28632812 -2.41015625 2.62890625 C-1.63204305 1.73008851 -0.84063472 0.84063472 0 0 Z " fill="#5D5D5D" transform="translate(1321,99)"/>
<path d="M0 0 C0.33 0.66 0.66 1.32 1 2 C-1.47812494 5.45167403 -2.79606135 7.23163306 -7 8 C-6.02133662 6.85373678 -5.04205413 5.70800212 -4.0625 4.5625 C-3.51722656 3.92441406 -2.97195313 3.28632812 -2.41015625 2.62890625 C-1.63204305 1.73008851 -0.84063472 0.84063472 0 0 Z " fill="#5D5D5C" transform="translate(1329,91)"/>
<path d="M0 0 C0.33 0.66 0.66 1.32 1 2 C-1.47812494 5.45167403 -2.79606135 7.23163306 -7 8 C-6.02133662 6.85373678 -5.04205413 5.70800212 -4.0625 4.5625 C-3.51722656 3.92441406 -2.97195313 3.28632812 -2.41015625 2.62890625 C-1.63204305 1.73008851 -0.84063472 0.84063472 0 0 Z " fill="#5D5D5C" transform="translate(1369,51)"/>
<path d="M0 0 C0.33 0.66 0.66 1.32 1 2 C-1.47812494 5.45167403 -2.79606135 7.23163306 -7 8 C-6.02133662 6.85373678 -5.04205413 5.70800212 -4.0625 4.5625 C-3.51722656 3.92441406 -2.97195313 3.28632812 -2.41015625 2.62890625 C-1.63204305 1.73008851 -0.84063472 0.84063472 0 0 Z " fill="#5D5D5C" transform="translate(1385,35)"/>
<path d="M0 0 C0.33 0.66 0.66 1.32 1 2 C-1.47812494 5.45167403 -2.79606135 7.23163306 -7 8 C-6.02133662 6.85373678 -5.04205413 5.70800212 -4.0625 4.5625 C-3.51722656 3.92441406 -2.97195313 3.28632813 -2.41015625 2.62890625 C-1.63204305 1.73008851 -0.84063472 0.84063472 0 0 Z " fill="#5D5D5C" transform="translate(1401,19)"/>
<path d="M0 0 C0.99 0.33 1.98 0.66 3 1 C1.71937515 2.7074998 0.38232443 4.37373596 -1 6 C-1.66 6 -2.32 6 -3 6 C-3.33 6.66 -3.66 7.32 -4 8 C-4 7.01 -4 6.02 -4 5 C-3.34 5 -2.68 5 -2 5 C-2 4.34 -2 3.68 -2 3 C-1.34 3 -0.68 3 0 3 C0 2.01 0 1.02 0 0 Z " fill="#5A5A59" transform="translate(587,931)"/>
<path d="M0 0 C0.33 0.66 0.66 1.32 1 2 C-0.32 3.65 -1.64 5.3 -3 7 C-3.99 6.67 -4.98 6.34 -6 6 C-4.02 4.02 -2.04 2.04 0 0 Z " fill="#BFBFBF" transform="translate(463,800)"/>
<path d="M0 0 C0.99 0.33 1.98 0.66 3 1 C1.71937515 2.7074998 0.38232443 4.37373596 -1 6 C-1.66 6 -2.32 6 -3 6 C-3.33 6.66 -3.66 7.32 -4 8 C-4 7.01 -4 6.02 -4 5 C-3.34 5 -2.68 5 -2 5 C-2 4.34 -2 3.68 -2 3 C-1.34 3 -0.68 3 0 3 C0 2.01 0 1.02 0 0 Z " fill="#5A5A59" transform="translate(747,771)"/>
<path d="M0 0 C0.99 0.33 1.98 0.66 3 1 C1.71937515 2.7074998 0.38232443 4.37373596 -1 6 C-1.66 6 -2.32 6 -3 6 C-3.33 6.66 -3.66 7.32 -4 8 C-4 7.01 -4 6.02 -4 5 C-3.34 5 -2.68 5 -2 5 C-2 4.34 -2 3.68 -2 3 C-1.34 3 -0.68 3 0 3 C0 2.01 0 1.02 0 0 Z " fill="#5A5A59" transform="translate(907,611)"/>
<path d="M0 0 C0.99 0.33 1.98 0.66 3 1 C1.71937515 2.7074998 0.38232443 4.37373596 -1 6 C-1.66 6 -2.32 6 -3 6 C-3.33 6.66 -3.66 7.32 -4 8 C-4 7.01 -4 6.02 -4 5 C-3.34 5 -2.68 5 -2 5 C-2 4.34 -2 3.68 -2 3 C-1.34 3 -0.68 3 0 3 C0 2.01 0 1.02 0 0 Z " fill="#5A5A59" transform="translate(1067,451)"/>
<path d="M0 0 C0.99 0.33 1.98 0.66 3 1 C1.71937515 2.7074998 0.38232443 4.37373596 -1 6 C-1.66 6 -2.32 6 -3 6 C-3.33 6.66 -3.66 7.32 -4 8 C-4 7.01 -4 6.02 -4 5 C-3.34 5 -2.68 5 -2 5 C-2 4.34 -2 3.68 -2 3 C-1.34 3 -0.68 3 0 3 C0 2.01 0 1.02 0 0 Z " fill="#5A5A59" transform="translate(1227,291)"/>
<path d="M0 0 C0.99 0.33 1.98 0.66 3 1 C1.71937515 2.7074998 0.38232443 4.37373596 -1 6 C-1.66 6 -2.32 6 -3 6 C-3.33 6.66 -3.66 7.32 -4 8 C-4 7.01 -4 6.02 -4 5 C-3.34 5 -2.68 5 -2 5 C-2 4.34 -2 3.68 -2 3 C-1.34 3 -0.68 3 0 3 C0 2.01 0 1.02 0 0 Z " fill="#5A5A59" transform="translate(1387,131)"/>
<path d="M0 0 C0.66 0.33 1.32 0.66 2 1 C1.67 2.65 1.34 4.3 1 6 C-0.32 4.68 -1.64 3.36 -3 2 C-2.01 1.34 -1.02 0.68 0 0 Z " fill="#E1E1DF" transform="translate(1571,112)"/>
</svg>
